<svg xmlns="http://www.w3.org/2000/svg" xmlns:xlink="http://www.w3.org/1999/xlink" version="1.1" class="marks" width="455" height="417" viewBox="0 0 455 417"><rect width="455" height="417" fill="white"/><g fill="none" stroke-miterlimit="10" transform="translate(53,27)"><g class="mark-group role-frame root" role="graphics-object" aria-roledescription="group mark container"><g transform="translate(0,0)"><path class="background" aria-hidden="true" d="M0.5,0.5h300v300h-300Z" stroke="#ddd"/><g><g class="mark-group role-axis" aria-hidden="true"><g transform="translate(0.5,0.5)"><path class="background" aria-hidden="true" d="M0,0h0v0h0Z" pointer-events="none"/><g><g class="mark-rule role-axis-grid" pointer-events="none"><line transform="translate(0,300)" x2="300" y2="0" stroke="#ddd" stroke-width="1" opacity="1"/><line transform="translate(0,270)" x2="300" y2="0" stroke="#ddd" stroke-width="1" opacity="1"/><line transform="translate(0,240)" x2="300" y2="0" stroke="#ddd" stroke-width="1" opacity="1"/><line transform="translate(0,210)" x2="300" y2="0" stroke="#ddd" stroke-width="1" opacity="1"/><line transform="translate(0,180)" x2="300" y2="0" stroke="#ddd" stroke-width="1" opacity="1"/><line transform="translate(0,150)" x2="300" y2="0" stroke="#ddd" stroke-width="1" opacity="1"/><line transform="translate(0,120)" x2="300" y2="0" stroke="#ddd" stroke-width="1" opacity="1"/><line transform="translate(0,90)" x2="300" y2="0" stroke="#ddd" stroke-width="1" opacity="1"/><line transform="translate(0,60)" x2="300" y2="0" stroke="#ddd" stroke-width="1" opacity="1"/><line transform="translate(0,30)" x2="300" y2="0" stroke="#ddd" stroke-width="1" opacity="1"/><line transform="translate(0,0)" x2="300" y2="0" stroke="#ddd" stroke-width="1" opacity="1"/></g></g><path class="foreground" aria-hidden="true" d="" pointer-events="none" display="none"/></g></g><g class="mark-group role-axis" role="graphics-symbol" aria-roledescription="axis" aria-label="X-axis titled 'Allocator' for a discrete scale with 5 values: box, bufpool_cold, bufpool_warm, slab_cold, slab_warm"><g transform="translate(0.5,300.5)"><path class="background" aria-hidden="true" d="M0,0h0v0h0Z" pointer-events="none"/><g><g class="mark-rule role-axis-tick" pointer-events="none"><line transform="translate(30,0)" x2="0" y2="5" stroke="#888" stroke-width="1" opacity="1"/><line transform="translate(90,0)" x2="0" y2="5" stroke="#888" stroke-width="1" opacity="1"/><line transform="translate(150,0)" x2="0" y2="5" stroke="#888" stroke-width="1" opacity="1"/><line transform="translate(210,0)" x2="0" y2="5" stroke="#888" stroke-width="1" opacity="1"/><line transform="translate(270,0)" x2="0" y2="5" stroke="#888" stroke-width="1" opacity="1"/></g><g class="mark-text role-axis-label" pointer-events="none"><text text-anchor="end" transform="translate(29.5,7) rotate(270) translate(0,3)" font-family="sans-serif" font-size="10px" fill="#000" opacity="1">box</text><text text-anchor="end" transform="translate(89.5,7) rotate(270) translate(0,3)" font-family="sans-serif" font-size="10px" fill="#000" opacity="1">bufpool_cold</text><text text-anchor="end" transform="translate(149.5,7) rotate(270) translate(0,3)" font-family="sans-serif" font-size="10px" fill="#000" opacity="1">bufpool_warm</text><text text-anchor="end" transform="translate(209.5,7) rotate(270) translate(0,3)" font-family="sans-serif" font-size="10px" fill="#000" opacity="1">slab_cold</text><text text-anchor="end" transform="translate(269.5,7) rotate(270) translate(0,3)" font-family="sans-serif" font-size="10px" fill="#000" opacity="1">slab_warm</text></g><g class="mark-rule role-axis-domain" pointer-events="none"><line transform="translate(0,0)" x2="300" y2="0" stroke="#888" stroke-width="1" opacity="1"/></g><g class="mark-text role-axis-title" pointer-events="none"><text text-anchor="middle" transform="translate(150,82.8125)" font-family="sans-serif" font-size="11px" font-weight="bold" fill="#000" opacity="1">Allocator</text></g></g><path class="foreground" aria-hidden="true" d="" pointer-events="none" display="none"/></g></g><g class="mark-group role-axis" role="graphics-symbol" aria-roledescription="axis" aria-label="Y-axis titled 'Latency Time (ms)' for a linear scale with values from 0.00 to 0.05"><g transform="translate(0.5,0.5)"><path class="background" aria-hidden="true" d="M0,0h0v0h0Z" pointer-events="none"/><g><g class="mark-rule role-axis-tick" pointer-events="none"><line transform="translate(0,300)" x2="-5" y2="0" stroke="#888" stroke-width="1" opacity="1"/><line transform="translate(0,270)" x2="-5" y2="0" stroke="#888" stroke-width="1" opacity="1"/><line transform="translate(0,240)" x2="-5" y2="0" stroke="#888" stroke-width="1" opacity="1"/><line transform="translate(0,210)" x2="-5" y2="0" stroke="#888" stroke-width="1" opacity="1"/><line transform="translate(0,180)" x2="-5" y2="0" stroke="#888" stroke-width="1" opacity="1"/><line transform="translate(0,150)" x2="-5" y2="0" stroke="#888" stroke-width="1" opacity="1"/><line transform="translate(0,120)" x2="-5" y2="0" stroke="#888" stroke-width="1" opacity="1"/><line transform="translate(0,90)" x2="-5" y2="0" stroke="#888" stroke-width="1" opacity="1"/><line transform="translate(0,60)" x2="-5" y2="0" stroke="#888" stroke-width="1" opacity="1"/><line transform="translate(0,30)" x2="-5" y2="0" stroke="#888" stroke-width="1" opacity="1"/><line transform="translate(0,0)" x2="-5" y2="0" stroke="#888" stroke-width="1" opacity="1"/></g><g class="mark-text role-axis-label" pointer-events="none"><text text-anchor="end" transform="translate(-7,303)" font-family="sans-serif" font-size="10px" fill="#000" opacity="1">0.000</text><text text-anchor="end" transform="translate(-7,273)" font-family="sans-serif" font-size="10px" fill="#000" opacity="1">0.005</text><text text-anchor="end" transform="translate(-7,243)" font-family="sans-serif" font-size="10px" fill="#000" opacity="1">0.010</text><text text-anchor="end" transform="translate(-7,213)" font-family="sans-serif" font-size="10px" fill="#000" opacity="1">0.015</text><text text-anchor="end" transform="translate(-7,183.00000000000003)" font-family="sans-serif" font-size="10px" fill="#000" opacity="1">0.020</text><text text-anchor="end" transform="translate(-7,153)" font-family="sans-serif" font-size="10px" fill="#000" opacity="1">0.025</text><text text-anchor="end" transform="translate(-7,123)" font-family="sans-serif" font-size="10px" fill="#000" opacity="1">0.030</text><text text-anchor="end" transform="translate(-7,92.99999999999999)" font-family="sans-serif" font-size="10px" fill="#000" opacity="1">0.035</text><text text-anchor="end" transform="translate(-7,63.00000000000002)" font-family="sans-serif" font-size="10px" fill="#000" opacity="1">0.040</text><text text-anchor="end" transform="translate(-7,33.00000000000003)" font-family="sans-serif" font-size="10px" fill="#000" opacity="1">0.045</text><text text-anchor="end" transform="translate(-7,3)" font-family="sans-serif" font-size="10px" fill="#000" opacity="1">0.050</text></g><g class="mark-rule role-axis-domain" pointer-events="none"><line transform="translate(0,300)" x2="0" y2="-300" stroke="#888" stroke-width="1" opacity="1"/></g><g class="mark-text role-axis-title" pointer-events="none"><text text-anchor="middle" transform="translate(-36.0244140625,150) rotate(-90) translate(0,-2)" font-family="sans-serif" font-size="11px" font-weight="bold" fill="#000" opacity="1">Latency Time (ms)</text></g></g><path class="foreground" aria-hidden="true" d="" pointer-events="none" display="none"/></g></g><g class="mark-symbol role-mark layer_0_layer_0_marks" role="graphics-object" aria-roledescription="symbol mark container"><path aria-label="Allocator: box; Latency Time (ms): 0.010708" role="graphics-symbol" aria-roledescription="point" transform="translate(30,235.75200000000004)" d="M2.739,0A2.739,2.739,0,1,1,-2.739,0A2.739,2.739,0,1,1,2.739,0" stroke="#4c78a8" stroke-width="2" opacity="0.7"/><path aria-label="Allocator: box; Latency Time (ms): 0.004875" role="graphics-symbol" aria-roledescription="point" transform="translate(30,270.75)" d="M2.739,0A2.739,2.739,0,1,1,-2.739,0A2.739,2.739,0,1,1,2.739,0" stroke="#4c78a8" stroke-width="2" opacity="0.7"/><path aria-label="Allocator: box; Latency Time (ms): 0.00525" role="graphics-symbol" aria-roledescription="point" transform="translate(30,268.5)" d="M2.739,0A2.739,2.739,0,1,1,-2.739,0A2.739,2.739,0,1,1,2.739,0" stroke="#4c78a8" stroke-width="2" opacity="0.7"/><path aria-label="Allocator: box; Latency Time (ms): 0.005291" role="graphics-symbol" aria-roledescription="point" transform="translate(30,268.254)" d="M2.739,0A2.739,2.739,0,1,1,-2.739,0A2.739,2.739,0,1,1,2.739,0" stroke="#4c78a8" stroke-width="2" opacity="0.7"/><path aria-label="Allocator: box; Latency Time (ms): 0.005208" role="graphics-symbol" aria-roledescription="point" transform="translate(30,268.752)" d="M2.739,0A2.739,2.739,0,1,1,-2.739,0A2.739,2.739,0,1,1,2.739,0" stroke="#4c78a8" stroke-width="2" opacity="0.7"/><path aria-label="Allocator: box; Latency Time (ms): 0.005041" role="graphics-symbol" aria-roledescription="point" transform="translate(30,269.754)" d="M2.739,0A2.739,2.739,0,1,1,-2.739,0A2.739,2.739,0,1,1,2.739,0" stroke="#4c78a8" stroke-width="2" opacity="0.7"/><path aria-label="Allocator: box; Latency Time (ms): 0.004833" role="graphics-symbol" aria-roledescription="point" transform="translate(30,271.002)" d="M2.739,0A2.739,2.739,0,1,1,-2.739,0A2.739,2.739,0,1,1,2.739,0" stroke="#4c78a8" stroke-width="2" opacity="0.7"/><path aria-label="Allocator: box; Latency Time (ms): 0.005166" role="graphics-symbol" aria-roledescription="point" transform="translate(30,269.004)" d="M2.739,0A2.739,2.739,0,1,1,-2.739,0A2.739,2.739,0,1,1,2.739,0" stroke="#4c78a8" stroke-width="2" opacity="0.7"/><path aria-label="Allocator: box; Latency Time (ms): 0.005041" role="graphics-symbol" aria-roledescription="point" transform="translate(30,269.754)" d="M2.739,0A2.739,2.739,0,1,1,-2.739,0A2.739,2.739,0,1,1,2.739,0" stroke="#4c78a8" stroke-width="2" opacity="0.7"/><path aria-label="Allocator: box; Latency Time (ms): 0.005291" role="graphics-symbol" aria-roledescription="point" transform="translate(30,268.254)" d="M2.739,0A2.739,2.739,0,1,1,-2.739,0A2.739,2.739,0,1,1,2.739,0" stroke="#4c78a8" stroke-width="2" opacity="0.7"/><path aria-label="Allocator: box; Latency Time (ms): 0.005083" role="graphics-symbol" aria-roledescription="point" transform="translate(30,269.502)" d="M2.739,0A2.739,2.739,0,1,1,-2.739,0A2.739,2.739,0,1,1,2.739,0" stroke="#4c78a8" stroke-width="2" opacity="0.7"/><path aria-label="Allocator: box; Latency Time (ms): 0.005083" role="graphics-symbol" aria-roledescription="point" transform="translate(30,269.502)" d="M2.739,0A2.739,2.739,0,1,1,-2.739,0A2.739,2.739,0,1,1,2.739,0" stroke="#4c78a8" stroke-width="2" opacity="0.7"/><path aria-label="Allocator: box; Latency Time (ms): 0.005333" role="graphics-symbol" aria-roledescription="point" transform="translate(30,268.002)" d="M2.739,0A2.739,2.739,0,1,1,-2.739,0A2.739,2.739,0,1,1,2.739,0" stroke="#4c78a8" stroke-width="2" opacity="0.7"/><path aria-label="Allocator: slab_cold; Latency Time (ms): 0.034958" role="graphics-symbol" aria-roledescription="point" transform="translate(210,90.25200000000004)" d="M2.739,0A2.739,2.739,0,1,1,-2.739,0A2.739,2.739,0,1,1,2.739,0" stroke="#72b7b2" stroke-width="2" opacity="0.7"/><path aria-label="Allocator: slab_cold; Latency Time (ms): 0.009708" role="graphics-symbol" aria-roledescription="point" transform="translate(210,241.752)" d="M2.739,0A2.739,2.739,0,1,1,-2.739,0A2.739,2.739,0,1,1,2.739,0" stroke="#72b7b2" stroke-width="2" opacity="0.7"/><path aria-label="Allocator: slab_cold; Latency Time (ms): 0.026333" role="graphics-symbol" aria-roledescription="point" transform="translate(210,142.00200000000004)" d="M2.739,0A2.739,2.739,0,1,1,-2.739,0A2.739,2.739,0,1,1,2.739,0" stroke="#72b7b2" stroke-width="2" opacity="0.7"/><path aria-label="Allocator: slab_warm; Latency Time (ms): 0.002875" role="graphics-symbol" aria-roledescription="point" transform="translate(270,282.75)" d="M2.739,0A2.739,2.739,0,1,1,-2.739,0A2.739,2.739,0,1,1,2.739,0" stroke="#54a24b" stroke-width="2" opacity="0.7"/><path aria-label="Allocator: slab_warm; Latency Time (ms): 0.002791" role="graphics-symbol" aria-roledescription="point" transform="translate(270,283.254)" d="M2.739,0A2.739,2.739,0,1,1,-2.739,0A2.739,2.739,0,1,1,2.739,0" stroke="#54a24b" stroke-width="2" opacity="0.7"/><path aria-label="Allocator: slab_warm; Latency Time (ms): 0.0015" role="graphics-symbol" aria-roledescription="point" transform="translate(270,291)" d="M2.739,0A2.739,2.739,0,1,1,-2.739,0A2.739,2.739,0,1,1,2.739,0" stroke="#54a24b" stroke-width="2" opacity="0.7"/><path aria-label="Allocator: slab_warm; Latency Time (ms): 0.001416" role="graphics-symbol" aria-roledescription="point" transform="translate(270,291.504)" d="M2.739,0A2.739,2.739,0,1,1,-2.739,0A2.739,2.739,0,1,1,2.739,0" stroke="#54a24b" stroke-width="2" opacity="0.7"/><path aria-label="Allocator: slab_warm; Latency Time (ms): 0.001583" role="graphics-symbol" aria-roledescription="point" transform="translate(270,290.502)" d="M2.739,0A2.739,2.739,0,1,1,-2.739,0A2.739,2.739,0,1,1,2.739,0" stroke="#54a24b" stroke-width="2" opacity="0.7"/><path aria-label="Allocator: bufpool_cold; Latency Time (ms): 0.049" role="graphics-symbol" aria-roledescription="point" transform="translate(90,6.000000000000039)" d="M2.739,0A2.739,2.739,0,1,1,-2.739,0A2.739,2.739,0,1,1,2.739,0" stroke="#f58518" stroke-width="2" opacity="0.7"/><path aria-label="Allocator: bufpool_cold; Latency Time (ms): 0.004791" role="graphics-symbol" aria-roledescription="point" transform="translate(90,271.254)" d="M2.739,0A2.739,2.739,0,1,1,-2.739,0A2.739,2.739,0,1,1,2.739,0" stroke="#f58518" stroke-width="2" opacity="0.7"/><path aria-label="Allocator: bufpool_cold; Latency Time (ms): 0.004875" role="graphics-symbol" aria-roledescription="point" transform="translate(90,270.75)" d="M2.739,0A2.739,2.739,0,1,1,-2.739,0A2.739,2.739,0,1,1,2.739,0" stroke="#f58518" stroke-width="2" opacity="0.7"/><path aria-label="Allocator: bufpool_cold; Latency Time (ms): 0.003" role="graphics-symbol" aria-roledescription="point" transform="translate(90,282)" d="M2.739,0A2.739,2.739,0,1,1,-2.739,0A2.739,2.739,0,1,1,2.739,0" stroke="#f58518" stroke-width="2" opacity="0.7"/><path aria-label="Allocator: bufpool_cold; Latency Time (ms): 0.004833" role="graphics-symbol" aria-roledescription="point" transform="translate(90,271.002)" d="M2.739,0A2.739,2.739,0,1,1,-2.739,0A2.739,2.739,0,1,1,2.739,0" stroke="#f58518" stroke-width="2" opacity="0.7"/><path aria-label="Allocator: bufpool_warm; Latency Time (ms): 0.00725" role="graphics-symbol" aria-roledescription="point" transform="translate(150,256.5)" d="M2.739,0A2.739,2.739,0,1,1,-2.739,0A2.739,2.739,0,1,1,2.739,0" stroke="#e45756" stroke-width="2" opacity="0.7"/><path aria-label="Allocator: bufpool_warm; Latency Time (ms): 0.00525" role="graphics-symbol" aria-roledescription="point" transform="translate(150,268.5)" d="M2.739,0A2.739,2.739,0,1,1,-2.739,0A2.739,2.739,0,1,1,2.739,0" stroke="#e45756" stroke-width="2" opacity="0.7"/><path aria-label="Allocator: bufpool_warm; Latency Time (ms): 0.004208" role="graphics-symbol" aria-roledescription="point" transform="translate(150,274.752)" d="M2.739,0A2.739,2.739,0,1,1,-2.739,0A2.739,2.739,0,1,1,2.739,0" stroke="#e45756" stroke-width="2" opacity="0.7"/></g><g class="mark-rule role-mark layer_0_layer_1_layer_0_marks" aria-hidden="true"><line transform="translate(30,286.752)" x2="0" y2="-1.0020000000000095" stroke="black"/><line transform="translate(210,285.252)" x2="0" y2="-1.2480000000000473" stroke="black"/><line transform="translate(270,294)" x2="0" y2="0" stroke="black"/><line transform="translate(90,288.504)" x2="0" y2="-0.75" stroke="black"/><line transform="translate(150,285.75)" x2="0" y2="-0.9959999999999809" stroke="black"/></g><g class="mark-rule role-mark layer_0_layer_1_layer_1_marks" aria-hidden="true"><line transform="translate(30,281.8755)" x2="0" y2="-3.625499999999988" stroke="black"/><line transform="translate(210,280.94100000000003)" x2="0" y2="-4.437000000000012" stroke="black"/><line transform="translate(270,293.004)" x2="0" y2="-1.254000000000019" stroke="black"/><line transform="translate(90,285.504)" x2="0" y2="-3.2520000000000095" stroke="black"/><line transform="translate(150,283.5)" x2="0" y2="-1.745999999999981" stroke="black"/></g><g class="mark-rect role-mark layer_1_layer_0_marks" role="graphics-object" aria-roledescription="rect mark container"><path aria-label="Allocator: box; Latency Time (ms): 0.002375; upper_box_time_ms: 0.00302075; Max of Latency Time (ms): 0.010708; Q3 of Latency Time (ms): 0.00302075; Median of Latency Time (ms): 0.002458; Q1 of Latency Time (ms): 0.002375; Min of Latency Time (ms): 0.002208" role="graphics-symbol" aria-roledescription="box" d="M23,281.8755h14v3.874500000000012h-14Z" fill="#4c78a8"/><path aria-label="Allocator: slab_cold; Latency Time (ms): 0.002666; upper_box_time_ms: 0.0031765; Max of Latency Time (ms): 0.034958; Q3 of Latency Time (ms): 0.0031765; Median of Latency Time (ms): 0.0028955; Q1 of Latency Time (ms): 0.002666; Min of Latency Time (ms): 0.002458" role="graphics-symbol" aria-roledescription="box" d="M203,280.94100000000003h14v3.0629999999999313h-14Z" fill="#72b7b2"/><path aria-label="Allocator: slab_warm; Latency Time (ms): 0.001; upper_box_time_ms: 0.001166; Max of Latency Time (ms): 0.002875; Q3 of Latency Time (ms): 0.001166; Median of Latency Time (ms): 0.001083; Q1 of Latency Time (ms): 0.001; Min of Latency Time (ms): 0.001" role="graphics-symbol" aria-roledescription="box" d="M263,293.004h14v0.9959999999999809h-14Z" fill="#54a24b"/><path aria-label="Allocator: bufpool_cold; Latency Time (ms): 0.002041; upper_box_time_ms: 0.002416; Max of Latency Time (ms): 0.049; Q3 of Latency Time (ms): 0.002416; Median of Latency Time (ms): 0.002166; Q1 of Latency Time (ms): 0.002041; Min of Latency Time (ms): 0.001916" role="graphics-symbol" aria-roledescription="box" d="M83,285.504h14v2.25h-14Z" fill="#f58518"/><path aria-label="Allocator: bufpool_warm; Latency Time (ms): 0.002541; upper_box_time_ms: 0.00275; Max of Latency Time (ms): 0.00725; Q3 of Latency Time (ms): 0.00275; Median of Latency Time (ms): 0.002625; Q1 of Latency Time (ms): 0.002541; Min of Latency Time (ms): 0.002375" role="graphics-symbol" aria-roledescription="box" d="M143,283.5h14v1.254000000000019h-14Z" fill="#e45756"/></g><g class="mark-rect role-mark layer_1_layer_1_marks" aria-hidden="true"><path d="M23,284.752h14v1h-14Z" fill="white" opacity="0.7"/><path d="M203,282.127h14v1h-14Z" fill="white" opacity="0.7"/><path d="M263,293.002h14v1h-14Z" fill="white" opacity="0.7"/><path d="M83,286.504h14v1h-14Z" fill="white" opacity="0.7"/><path d="M143,283.75h14v1h-14Z" fill="white" opacity="0.7"/></g><g class="mark-group role-legend" role="graphics-symbol" aria-roledescription="legend" aria-label="Symbol legend titled 'Allocator' for fill color and stroke color with 5 values: box, bufpool_cold, bufpool_warm, slab_cold, slab_warm"><g transform="translate(318,0)"><path class="background" aria-hidden="true" d="M0,0h79v93h-79Z" pointer-events="none"/><g><g class="mark-group role-legend-entry"><g transform="translate(0,16)"><path class="background" aria-hidden="true" d="M0,0h0v0h0Z" pointer-events="none"/><g><g class="mark-group role-scope" role="graphics-object" aria-roledescription="group mark container"><g transform="translate(0,0)"><path class="background" aria-hidden="true" d="M0,0h78.8125v12.5h-78.8125Z" pointer-events="none" opacity="1"/><g><g class="mark-symbol role-legend-symbol" pointer-events="none"><path transform="translate(6,6)" d="M5,0A5,5,0,1,1,-5,0A5,5,0,1,1,5,0" fill="#4c78a8" stroke="#4c78a8" stroke-width="1.5" opacity="0.7"/></g><g class="mark-text role-legend-label" pointer-events="none"><text text-anchor="start" transform="translate(16,9)" font-family="sans-serif" font-size="10px" fill="#000" opacity="1">box</text></g></g><path class="foreground" aria-hidden="true" d="" pointer-events="none" display="none"/></g><g transform="translate(0,16)"><path class="background" aria-hidden="true" d="M0,0h78.8125v12.5h-78.8125Z" pointer-events="none" opacity="1"/><g><g class="mark-symbol role-legend-symbol" pointer-events="none"><path transform="translate(6,6)" d="M5,0A5,5,0,1,1,-5,0A5,5,0,1,1,5,0" fill="#f58518" stroke="#f58518" stroke-width="1.5" opacity="0.7"/></g><g class="mark-text role-legend-label" pointer-events="none"><text text-anchor="start" transform="translate(16,9)" font-family="sans-serif" font-size="10px" fill="#000" opacity="1">bufpool_cold</text></g></g><path class="foreground" aria-hidden="true" d="" pointer-events="none" display="none"/></g><g transform="translate(0,32)"><path class="background" aria-hidden="true" d="M0,0h78.8125v12.5h-78.8125Z" pointer-events="none" opacity="1"/><g><g class="mark-symbol role-legend-symbol" pointer-events="none"><path transform="translate(6,6)" d="M5,0A5,5,0,1,1,-5,0A5,5,0,1,1,5,0" fill="#e45756" stroke="#e45756" stroke-width="1.5" opacity="0.7"/></g><g class="mark-text role-legend-label" pointer-events="none"><text text-anchor="start" transform="translate(16,9)" font-family="sans-serif" font-size="10px" fill="#000" opacity="1">bufpool_warm</text></g></g><path class="foreground" aria-hidden="true" d="" pointer-events="none" display="none"/></g><g transform="translate(0,48)"><path class="background" aria-hidden="true" d="M0,0h78.8125v12.5h-78.8125Z" pointer-events="none" opacity="1"/><g><g class="mark-symbol role-legend-symbol" pointer-events="none"><path transform="translate(6,6)" d="M5,0A5,5,0,1,1,-5,0A5,5,0,1,1,5,0" fill="#72b7b2" stroke="#72b7b2" stroke-width="1.5" opacity="0.7"/></g><g class="mark-text role-legend-label" pointer-events="none"><text text-anchor="start" transform="translate(16,9)" font-family="sans-serif" font-size="10px" fill="#000" opacity="1">slab_cold</text></g></g><path class="foreground" aria-hidden="true" d="" pointer-events="none" display="none"/></g><g transform="translate(0,64)"><path class="background" aria-hidden="true" d="M0,0h78.8125v12.5h-78.8125Z" pointer-events="none" opacity="1"/><g><g class="mark-symbol role-legend-symbol" pointer-events="none"><path transform="translate(6,6)" d="M5,0A5,5,0,1,1,-5,0A5,5,0,1,1,5,0" fill="#54a24b" stroke="#54a24b" stroke-width="1.5" opacity="0.7"/></g><g class="mark-text role-legend-label" pointer-events="none"><text text-anchor="start" transform="translate(16,9)" font-family="sans-serif" font-size="10px" fill="#000" opacity="1">slab_warm</text></g></g><path class="foreground" aria-hidden="true" d="" pointer-events="none" display="none"/></g></g></g><path class="foreground" aria-hidden="true" d="" pointer-events="none" display="none"/></g></g><g class="mark-text role-legend-title" pointer-events="none"><text text-anchor="start" transform="translate(0,9)" font-family="sans-serif" font-size="11px" font-weight="bold" fill="#000" opacity="1">Allocator</text></g></g><path class="foreground" aria-hidden="true" d="" pointer-events="none" display="none"/></g></g><g class="mark-group role-title"><g transform="translate(150,-22)"><path class="background" aria-hidden="true" d="M0,0h0v0h0Z" pointer-events="none"/><g><g class="mark-text role-title-text" role="graphics-symbol" aria-roledescription="title" aria-label="Title text 'MacBook Pro (M1Max) - Pattern: LIFO, Size: 256 bytes (latency)'" pointer-events="none"><text text-anchor="middle" transform="translate(0,10)" font-family="sans-serif" font-size="13px" font-weight="bold" fill="#000" opacity="1">MacBook Pro (M1Max) - Pattern: LIFO, Size: 256 bytes (latency)</text></g></g><path class="foreground" aria-hidden="true" d="" pointer-events="none" display="none"/></g></g></g><path class="foreground" aria-hidden="true" d="" display="none"/></g></g></g></svg>