<?xml version="1.0" encoding="utf-8"?>
<!DOCTYPE svg PUBLIC "-//W3C//DTD SVG 20010904//EN" "http://www.w3.org/TR/2001/REC-SVG-20010904/DTD/svg10.dtd">
<svg version="1.0" xmlns="http://www.w3.org/2000/svg" width="350px" height="350px" viewBox="0 0 350 350" preserveAspectRatio="xMidYMid meet">
 <g fill="#050704">
  <path d="M0 175 l0 -175 47.5 0 47.5 0 0 1.8 -0.1 1.7 -1.7 2 c-0.9 1.2 -2.5 2.4 -3.4 2.8 l-1.8 0.6 0 1.1 0 1 -1.5 0 -1.4 0 -1 1.9 c-1.1 1.9 -15.1 16.3 -23.4 23.9 -2.6 2.3 -4.7 4.6 -4.8 5 0 0.4 -3.1 3.4 -6.9 6.7 -3.7 3.3 -7.1 6.7 -7.5 7.5 l-0.6 1.5 2.2 1.7 2.1 1.8 -0.7 8.5 -0.7 8.5 -1.4 1.4 c-1.9 2 -1.8 2.9 0.6 4.4 l2 1.2 0 7.6 0 7.6 -1.9 0.5 -2 0.5 -0.4 1.2 -0.5 1.3 1.4 12.9 c0.8 7.1 1.6 13.5 1.9 14.2 0.3 0.7 1.2 5.9 2.1 11.5 0.8 5.6 2 11.9 2.5 13.9 1.2 4.6 3.5 16.7 5.4 27.8 1.7 10.2 4.7 24.8 7.9 38.4 1.3 5.6 2.6 11.2 2.9 12.6 1.8 9.2 10.1 50 12.7 62 l3 14.5 1.7 3.8 1.6 3.7 3.8 0 3.8 0 1.2 4.3 c0.7 2.3 1.5 6.5 1.8 9.2 l0.6 5 41.5 -0.2 41.5 -0.1 15 -1.2 c17.4 -1.3 44.3 -3.8 49.8 -4.7 l3.7 -0.6 0.6 -0.8 0.5 -0.9 5.4 0 5.4 0 9.8 -1.6 c15 -2.4 23.3 -4 29.3 -5.9 3 -0.9 7.7 -2.1 10.5 -2.7 l4.9 -1 7 -3.4 7.1 -3.4 2.3 0 c2.2 0 6.2 1.8 7.2 3.2 l0.6 0.8 2.2 -1.6 2.2 -1.5 0 -1.7 0.1 -1.7 1.8 -2.2 1.9 -2.3 2.6 0 2.6 0 0 23 0 23 -175 0 -175 0 0 -175z"/>
 </g>
 <g fill="#2e3b1b">
  <path d="M91.7 340.3 c-0.4 -0.3 -0.7 -1.2 -0.7 -2 l0 -1.3 3.5 0 3.5 0 0 2 0 2 -2.8 0 c-1.6 0 -3.2 -0.3 -3.5 -0.7z"/>
  <path d="M178 337.5 l0 -2.5 3.4 0 c1.8 0 4.8 0.3 6.5 0.6 l3.1 0.7 0 1.2 0 1.3 -1.6 0.6 c-0.9 0.3 -3.8 0.6 -6.5 0.6 l-4.9 0 0 -2.5z"/>
  <path d="M157 329.5 l0 -3.5 3.5 0 3.5 0 0 3.5 0 3.5 -3.5 0 -3.5 0 0 -3.5z"/>
  <path d="M177 328.5 l0 -3.5 3.5 0 3.5 0 0 3.5 0 3.5 -3.5 0 -3.5 0 0 -3.5z"/>
  <path d="M194 327.5 l0 -3.5 7 0 7 0 0 3.5 0 3.5 -7 0 -7 0 0 -3.5z"/>
  <path d="M221 325.5 l0 -3.5 3.5 0 3.5 0 0 3.5 0 3.5 -3.5 0 -3.5 0 0 -3.5z"/>
  <path d="M233 324.5 l0 -3.5 3.5 0 3.5 0 0 3.5 0 3.5 -3.5 0 -3.5 0 0 -3.5z"/>
  <path d="M261 319.5 l0 -3.5 2.8 0 c1.5 0 5.1 -0.3 8 -0.6 l5.2 -0.7 0 3.5 0 3.5 -5.2 0.7 c-2.9 0.3 -6.5 0.6 -8 0.6 l-2.8 0 0 -3.5z"/>
  <path d="M333.3 317.8 c-0.4 -0.7 -1.8 -1.8 -3 -2.5 l-2.1 -1.2 -1.3 1.5 -1.2 1.4 -0.5 -0.5 -0.5 -0.5 -1.4 1.1 -1.3 1.1 0 -2.6 0 -2.6 1.6 0 1.5 0 1.5 -1.4 1.4 -1.5 0 -1.5 0 -1.6 3.5 0 3.5 0 0 2 0 2 0.9 0 1 0 0.6 -2.2 c0.4 -1.3 1.9 -3.5 3.3 -5 l2.6 -2.8 3.3 0 3.3 0 0 3 0 3 -1.1 0 c-0.6 0 -1.9 1 -3 2.3 l-1.8 2.2 -0.1 1.7 0 1.7 -2.9 2 -2.9 2.1 -2.1 0 -2 0 -0.8 -1.2z"/>
  <path d="M77 276.5 l0 -3.5 3.5 0 3.5 0 0 3.5 0 3.5 -3.5 0 -3.5 0 0 -3.5z"/>
  <path d="M69 236.5 l0 -3.5 3.5 0 3.5 0 0 3.5 0 3.5 -3.5 0 -3.5 0 0 -3.5z"/>
  <path d="M155.9 236.2 c-1.6 -1.8 -3.3 -5.2 -6.9 -14.2 -1.2 -3 -3.3 -8 -4.5 -11 -4.1 -9.7 -8.4 -22 -10.5 -30.4 l-2.1 -8.2 0.3 -5.4 0.3 -5.5 7.6 -0.3 7.6 -0.3 1.1 2.8 c0.6 1.5 1.3 5.1 1.7 7.8 0.7 5.7 1.4 8.2 6.2 21.3 1.8 5.1 3.3 10.1 3.3 11.1 0 1.1 0.4 2.1 0.8 2.3 1.4 0.5 7.3 11.9 8.8 16.7 0.7 2.5 1.4 5.9 1.4 7.4 l0 2.8 -1.6 2.4 -1.6 2.5 -5.2 -0.1 -5.1 0 -1.6 -1.7z"/>
  <path d="M66 223.5 l0 -3.5 3.5 0 3.5 0 0 3.5 0 3.5 -3.5 0 -3.5 0 0 -3.5z"/>
  <path d="M252.1 219.5 l-3.2 -7.6 -0.9 -7.9 -0.9 -8 -2.1 -6.6 c-1.1 -3.6 -2 -7.9 -2 -9.4 0 -1.6 -0.4 -3.9 -0.9 -5.2 -0.5 -1.3 -1.4 -7.1 -2 -13 l-1.2 -10.6 0.7 -4.1 0.7 -4.1 5.9 0 5.9 0 1.7 1.6 1.6 1.7 2.2 13.1 c2.1 12.3 5.5 28.4 10.5 49.2 l2.2 9.1 -0.9 4.4 -0.9 4.4 -6.6 0.3 -6.7 0.3 -3.1 -7.6z"/>
  <path d="M62 205.5 l0 -3.5 3.5 0 3.5 0 0 3.5 0 3.5 -3.5 0 -3.5 0 0 -3.5z"/>
  <path d="M328.7 205.3 l-0.7 -0.6 0 -6.9 0 -6.9 -3 -5.4 -3 -5.4 0 -4 0 -4.1 2 -2 2 -2 2.8 0 2.7 0 2.9 1.5 c1.5 0.8 3 1.5 3.1 1.5 0.2 0 0.6 -1.6 1 -3.6 l0.6 -3.6 1.9 -2 1.8 -1.9 3.3 0.3 3.4 0.3 0.3 20.8 0.2 20.7 -3 0 -3 0 -1.7 2 -1.7 2 -5.7 0 -5.6 0 -0.6 -0.7z"/>
  <path d="M320.8 155.6 c-0.9 -0.9 -2.1 -1.6 -2.7 -1.6 l-1.1 0 0 -3.9 0 -3.9 -1 -0.4 -1.1 -0.3 -0.6 -7.2 -0.6 -7.1 0.6 -2.3 0.6 -2.4 7.3 -1.8 c4 -0.9 8.1 -1.7 9 -1.7 l1.7 0 0.6 -3.4 0.7 -3.4 2.4 -1.1 2.5 -1.1 4 0 4 0 1.5 1.4 1.4 1.5 0 12 0 12.1 -2.5 0 c-1.3 0 -3.6 0.5 -5 1.2 l-2.5 1.1 0 3.3 0 3.2 -1.5 0.6 -1.5 0.5 0 1.6 0 1.5 -1.4 0 -1.4 0 -0.4 1.2 -0.4 1.1 -5.5 0.5 -5.5 0.4 -1.6 -1.6z"/>
  <path d="M42 64.7 l0 -1.4 -2.5 -1.3 c-1.4 -0.7 -2.5 -1.7 -2.5 -2.2 l0 -0.8 3.5 0 3.5 0 0 3.5 0 3.5 -1 0 -1 0 0 -1.3z"/>
  <path d="M52.7 39.2 l0.4 -1.8 2 -1.2 1.9 -1.2 0 3 0 3 -2.4 0 -2.4 0 0.5 -1.8z"/>
  <path d="M65.8 26.1 l3.7 -3.9 0.3 2.5 c0.2 1.3 0.1 3.1 -0.2 3.9 l-0.5 1.4 -3.6 0 -3.5 0 3.8 -3.9z"/>
  <path d="M76.6 15.2 c1.8 -1.6 3.7 -3.8 4.3 -5 l1.2 -2.2 1.4 0 1.3 0 0.5 -1.2 0.5 -1.3 0.1 3.1 0.1 3.2 -2.7 3.1 -2.7 3.1 -3.5 0 -3.5 0 3 -2.8z"/>
 </g>
 <g fill="#3b5413">
  <path d="M90.3 331.7 l-0.1 -3.6 5.7 -1.2 5.6 -1.1 16.5 0.6 c9.1 0.3 19.5 0.6 23.3 0.6 l6.7 0 0 3.5 0 3.6 -21.7 -0.1 -21.8 -0.1 -7 0.7 -7.1 0.6 -0.1 -3.5z"/>
  <path d="M155 329.5 l0 -3.5 7 0 7 0 0 3.5 0 3.5 -7 0 -7 0 0 -3.5z m6 0 c0 -0.3 -0.2 -0.5 -0.5 -0.5 -0.3 0 -0.5 0.2 -0.5 0.5 0 0.3 0.2 0.5 0.5 0.5 0.3 0 0.5 -0.2 0.5 -0.5z"/>
  <path d="M170 328.5 l0 -3.5 8.5 0 8.5 0 0 3.5 0 3.5 -8.5 0 -8.5 0 0 -3.5z m11 0 c0 -0.3 -0.2 -0.5 -0.5 -0.5 -0.3 0 -0.5 0.2 -0.5 0.5 0 0.3 0.2 0.5 0.5 0.5 0.3 0 0.5 -0.2 0.5 -0.5z"/>
  <path d="M191 327.7 l0 -3.3 16.6 -1.2 c9.1 -0.7 20 -1.7 24.2 -2.2 13.6 -1.8 29.5 -4.1 38.5 -5.6 4.8 -0.8 9.6 -1.4 10.7 -1.4 l2 0 0 3.4 0 3.4 -2.2 0.6 c-1.3 0.3 -5.4 0.9 -9.3 1.2 -3.8 0.4 -7.4 1 -8 1.4 -1.7 1.3 -6.7 2.1 -19.6 3 -6.8 0.5 -16.9 1.6 -22.4 2.4 l-10 1.5 -10.2 0.1 -10.3 0 0 -3.3z m7 -0.2 c0 -0.3 -0.2 -0.5 -0.5 -0.5 -0.3 0 -0.5 0.2 -0.5 0.5 0 0.3 0.2 0.5 0.5 0.5 0.3 0 0.5 -0.2 0.5 -0.5z m7 0 c0 -0.3 -0.2 -0.5 -0.5 -0.5 -0.3 0 -0.5 0.2 -0.5 0.5 0 0.3 0.2 0.5 0.5 0.5 0.3 0 0.5 -0.2 0.5 -0.5z m20 -2 c0 -0.3 -0.2 -0.5 -0.5 -0.5 -0.3 0 -0.5 0.2 -0.5 0.5 0 0.3 0.2 0.5 0.5 0.5 0.3 0 0.5 -0.2 0.5 -0.5z m12 -1 c0 -0.3 -0.2 -0.5 -0.5 -0.5 -0.3 0 -0.5 0.2 -0.5 0.5 0 0.3 0.2 0.5 0.5 0.5 0.3 0 0.5 -0.2 0.5 -0.5z m28 -5 c0 -0.3 -0.2 -0.5 -0.5 -0.5 -0.3 0 -0.5 0.2 -0.5 0.5 0 0.3 0.2 0.5 0.5 0.5 0.3 0 0.5 -0.2 0.5 -0.5z m2 0 c0 -0.3 -0.2 -0.5 -0.5 -0.5 -0.3 0 -0.5 0.2 -0.5 0.5 0 0.3 0.2 0.5 0.5 0.5 0.3 0 0.5 -0.2 0.5 -0.5z m7 -1 c0 -0.3 -0.2 -0.5 -0.5 -0.5 -0.3 0 -0.5 0.2 -0.5 0.5 0 0.3 0.2 0.5 0.5 0.5 0.3 0 0.5 -0.2 0.5 -0.5z"/>
  <path d="M292.6 322.5 l-1.9 -2.5 -3.3 0 -3.4 0 0 -3.4 0 -3.4 3.5 -0.6 3.6 -0.7 4.4 0.7 4.5 0.6 0 1.4 0 1.4 1 0 1 0 0 2.5 0 2.5 1.5 0 1.5 0 0 1 c0 1.4 -3 2.6 -7 2.9 l-3.5 0.2 -1.9 -2.6z"/>
  <path d="M84.4 321.2 l-1.1 -0.7 -1.2 -6.6 c-0.6 -3.6 -1.1 -7.8 -1.1 -9.2 l0 -2.7 4.5 0 4.4 0 0.6 3.8 c0.3 2 1 4.5 1.6 5.4 1 2 1.2 5.3 0.3 8.6 l-0.6 2.2 -3.2 0 c-1.7 0 -3.6 -0.4 -4.2 -0.8z"/>
  <path d="M323 314.6 l0 -2.6 2.5 -1.6 2.5 -1.6 0 -1.4 c0 -1.9 -0.7 -1.8 -3.2 0.6 l-2.2 2 -3.1 0 -3.2 0 -2.3 -2 -2.2 -1.9 -1.4 -10.8 c-2.3 -19.1 -5.4 -46.7 -5.4 -48.5 l0 -1.8 3 0 3 0 0 -1 0 -1 -3.4 0 -3.3 0 -1.1 -9.2 c-0.6 -5.1 -2.2 -18.1 -3.6 -28.8 -1.3 -10.7 -2.7 -23.1 -3.1 -27.5 -0.4 -4.4 -1.3 -12.5 -2 -18 -0.7 -5.5 -1.6 -14.2 -2 -19.2 l-0.7 -9.3 3.6 0 3.6 0 0 -1.8 0 -1.8 -3.8 0.4 -3.9 0.4 -1.2 -9.9 -1.2 -9.8 1.4 -4 1.4 -4 5.5 -0.3 5.6 -0.3 1.6 1.6 1.5 1.6 0.9 3.7 c0.5 2 1.7 12.3 2.6 22.7 1 10.5 2.4 23.7 3.1 29.5 0.8 5.8 1.9 15.9 2.5 22.5 0.6 6.6 1.5 14.6 2 17.7 0.6 3.1 1.4 10.1 1.9 15.5 1.1 12.9 5.9 52.2 7.2 59.7 0.6 3.2 1.3 11.4 1.6 18.2 l0.6 12.3 8.1 -8.4 8.1 -8.4 2.8 -0.6 2.7 -0.7 0 8.6 0 8.6 -1.8 0 -1.8 0 -2.6 2.8 c-1.4 1.5 -2.9 3.6 -3.2 4.8 l-0.6 2.1 -2.2 1 -2.2 1 -2.8 -1.1 -2.7 -1 -2.8 1.4 c-1.5 0.8 -3.1 1.6 -3.5 1.8 l-0.8 0.3 0 -2.5z m9 -4.1 c0 -0.3 -0.2 -0.5 -0.5 -0.5 -0.3 0 -0.5 0.2 -0.5 0.5 0 0.3 0.2 0.5 0.5 0.5 0.3 0 0.5 -0.2 0.5 -0.5z m-28.3 -136.2 l-0.7 -0.6 0 1.3 0 1.3 0.7 -0.6 0.6 -0.7 -0.6 -0.7z"/>
  <path d="M78.6 298.8 c-0.3 -1.3 -0.6 -3.9 -0.6 -5.9 l0 -3.7 1.6 -0.6 c0.9 -0.3 2.8 -0.6 4.4 -0.6 l2.7 0 0.7 3.8 c0.3 2 0.6 4.9 0.6 6.5 l0 2.7 -4.4 0 -4.4 0 -0.6 -2.2z"/>
  <path d="M75 269 l0 -1 -1.4 0 -1.4 0 -0.6 -2.2 c-0.3 -1.3 -0.6 -4.7 -0.6 -7.5 l0 -5.3 4 0 4 0 1 2.4 c0.5 1.3 1.2 5.2 1.6 8.5 l0.7 6.1 -3.7 0 -3.6 0 0 -1z"/>
  <path d="M69 247.8 l0 -3.3 -2.1 -6 c-1.1 -3.3 -2.4 -8.5 -2.9 -11.5 -1.8 -11.6 -3.5 -19.5 -4.1 -20 -1.3 -1 -4.9 -20.7 -4.9 -26.8 l0 -4.2 -0.8 0 -0.9 0 -1.3 -7.2 c-0.7 -3.9 -1.4 -10.5 -1.5 -14.6 l-0.3 -7.5 -0.9 -0.6 c-0.6 -0.3 -1.5 -2.7 -2.1 -5.3 l-1.2 -4.7 0 -4.5 0 -4.6 4.5 0 4.5 0 0 2.1 c0 1.2 0.9 6.9 2 12.8 1.1 5.8 3.4 17.8 5.1 26.6 1.7 8.8 3.7 19.4 4.5 23.6 0.8 4.2 1.4 9 1.4 10.7 l0 3 1 0.4 1.1 0.3 0.5 6 0.6 6 1.4 3.2 c0.8 1.7 1.4 3.9 1.4 5 0 1 0.9 5.1 2 9.2 l2 7.5 0 3.8 0 3.8 -4.5 0 -4.5 0 0 -3.2z m4 -11.3 c0 -0.3 -0.2 -0.5 -0.5 -0.5 -0.3 0 -0.5 0.2 -0.5 0.5 0 0.3 0.2 0.5 0.5 0.5 0.3 0 0.5 -0.2 0.5 -0.5z m-3 -13 c0 -0.3 -0.2 -0.5 -0.5 -0.5 -0.3 0 -0.5 0.2 -0.5 0.5 0 0.3 0.2 0.5 0.5 0.5 0.3 0 0.5 -0.2 0.5 -0.5z m-4 -18 c0 -0.3 -0.2 -0.5 -0.5 -0.5 -0.3 0 -0.5 0.2 -0.5 0.5 0 0.3 0.2 0.5 0.5 0.5 0.3 0 0.5 -0.2 0.5 -0.5z"/>
  <path d="M158 235.6 l0 -1.5 -2.2 -0.3 -2.3 -0.3 -0.3 -3.7 -0.3 -3.8 0.5 0 c0.3 0 1.5 0.9 2.6 2 l2.1 2.1 -0.5 0.8 -0.5 0.7 2 1.7 c2.4 2.1 3 2.1 2.3 0.2 l-0.6 -1.5 2.2 0 2.2 0 -0.6 1.8 -0.6 1.7 2 -2.5 2 -2.5 0 3.3 0 3.2 -5 0 -5 0 0 -1.4z"/>
  <path d="M166.6 226.8 c-0.3 -1.3 -0.6 -2.9 -0.6 -3.5 l0 -1.3 2 0 2 0 0 3.5 0 3.5 -1.4 0 -1.4 0 -0.6 -2.2z"/>
  <path d="M161.9 215.5 l-2.4 -4.5 -1.5 0 -1.5 0 1.5 -1 1.5 -1 -1.8 0 -1.7 0 0.6 -2.5 0.6 -2.5 -1.6 0 -1.6 0 0 -1 c0 -0.5 0.4 -1 1 -1 l0.9 0 -0.5 -1.5 -0.6 -1.5 2.1 0 2 0 2.6 5.5 c1.4 3.1 2.5 6.2 2.5 7 l0 1.5 1 0 1 0 0 3.5 0 3.5 -0.9 0 c-0.4 0 -1.9 -2 -3.2 -4.5z"/>
  <path d="M145 210.5 l0 -3.5 1 0 0.9 0 1.6 3 c2 3.8 1.9 4 -1 4 l-2.5 0 0 -3.5z"/>
  <path d="M331 210 c-0.8 -0.5 -2.4 -1.1 -3.4 -1.5 l-1.9 -0.5 0.6 -6.8 0.7 -6.7 -1.1 -3.8 -1 -3.7 -1.4 0 -1.5 0 0 -1.9 0 -2 -1 -0.6 -1 -0.6 0 -3.2 0 -3.2 1.8 -2.7 c0.9 -1.4 2.9 -3.6 4.4 -4.7 l2.6 -2.1 3.5 0 3.6 0 0.6 1 c0.3 0.6 1 1 1.5 1 l0.8 0 0.6 -2.6 0.7 -2.7 2.2 -1.8 2.2 -1.8 2.8 -0.1 2.7 0 0 2.6 0 2.5 -2.7 -0.3 -2.8 -0.3 0 1.5 -0.1 1.5 -1.3 -0.3 -1.3 -0.3 0.7 2.1 0.6 2 -0.9 0 -0.9 0 0.2 3.3 c0.2 1.8 1 5 1.9 7.2 l1.7 3.9 -0.6 1.3 -0.5 1.4 1 -0.6 0.9 -0.5 -0.2 2 -0.1 2.1 -2.6 -0.3 -2.5 -0.3 -0.3 -2.7 -0.3 -2.8 -2 0 -1.9 0 0 -1.1 c0 -0.6 0.7 -1.7 1.5 -2.5 0.8 -0.9 1.5 -2.2 1.5 -3 l0 -1.4 -3.7 -1.7 c-2.1 -0.9 -4.6 -2 -5.6 -2.5 l-1.8 -0.8 0.6 0.9 0.5 1 -1.9 0.6 -1.9 0.6 0.2 2.2 c0.2 1.2 1.5 4.4 3 7 l2.7 4.8 0.2 7.2 0.2 7.2 2.8 0.3 2.8 0.3 3.1 -3 3.2 -3.1 1.2 0 1.2 0 0.5 1.3 0.5 1.2 0.1 -1.7 0.1 -1.8 -1 0 c-0.5 0 -1 -0.4 -1 -1 l0 -1 1.8 -0.1 1.7 -0.1 -1.3 -0.5 -1.2 -0.5 0.5 -0.8 0.6 -0.9 1.4 0.6 1.5 0.5 0 3.7 c0 2 -0.3 4.5 -0.6 5.6 l-0.6 2 -4.6 3.8 -4.7 3.7 -3.5 -0.1 c-1.9 0 -4.2 -0.4 -5 -0.9z m18 -13.5 c0 -0.3 -0.2 -0.5 -0.5 -0.5 -0.3 0 -0.5 0.2 -0.5 0.5 0 0.3 0.2 0.5 0.5 0.5 0.3 0 0.5 -0.2 0.5 -0.5z"/>
  <path d="M248 203.4 l0 -3.5 1.8 0.3 1.7 0.3 0 3.3 0.1 3.2 -1.8 0 -1.8 0 0 -3.6z"/>
  <path d="M139 195.5 l0 -3.5 1.3 0 1.4 0 1 3.5 1.1 3.5 -2.4 0 -2.4 0 0 -3.5z"/>
  <path d="M244 183.5 l0 -3.5 0.9 0 c1.3 0 2.1 1.5 2.7 4.5 l0.4 2.5 -2 0 -2 0 0 -3.5z"/>
  <path d="M132 172.5 l0 -3.5 1.4 0 1.4 0 0.6 2.3 c0.3 1.2 0.6 2.8 0.6 3.5 l0 1.2 -2 0 -2 0 0 -3.5z"/>
  <path d="M241 168.5 l0 -3.5 1.5 0 1.5 0 0.1 1.3 c0 0.6 0.2 2.2 0.5 3.5 l0.4 2.2 -2 0 -2 0 0 -3.5z"/>
  <path d="M146.2 169.8 c0.1 -0.7 -0.2 -2.3 -0.6 -3.5 l-0.7 -2.3 -4 0 -3.9 0 0 -2 0 -2 5 0 5 0 0 2 0 2 1.5 0 1.5 0 0 3.5 0 3.5 -2 0 -2.1 0 0.3 -1.2z"/>
  <path d="M255 165.1 c0 -1.1 -0.3 -2.6 -0.6 -3.5 l-0.6 -1.6 1.6 0 1.6 0 0 3.5 0 3.5 -1 0 -1 0 0 -1.9z"/>
  <path d="M345 164.5 c0 -0.3 0.2 -0.5 0.5 -0.5 0.3 0 0.5 0.2 0.5 0.5 0 0.3 -0.2 0.5 -0.5 0.5 -0.3 0 -0.5 -0.2 -0.5 -0.5z"/>
  <path d="M252.3 163.3 l0.7 -0.6 0.7 0.6 0.6 0.7 -1.3 0 -1.3 0 0.6 -0.7z"/>
  <path d="M321.4 159.8 l-2.2 -1 -1.1 -2.2 c-1.5 -2.9 -3.2 -12.7 -3.8 -21.4 l-0.5 -7.3 2.9 -2.2 2.8 -2.2 7 0 7 0 0.3 -3.2 0.3 -3.3 2 -1.1 2 -1 5.7 -0.2 5.7 -0.2 0 2 0 2 -2.9 0.3 -2.8 0.4 0.7 -1.1 0.6 -1.1 -2.1 0 -2.1 0 0.7 1.2 0.7 1.1 -1.7 -0.6 -1.7 -0.7 0.6 0.9 0.5 0.9 -1.1 2.8 -1 2.8 -1 -1.4 -1 -1.5 0.5 3.6 c0.3 1.9 1.2 4.8 2 6.4 l1.5 2.9 -0.6 1 -0.6 1.1 0.7 -0.6 0.7 -0.7 4.7 1.2 4.7 1.2 0.3 3.2 0.3 3.2 -2.8 0 -2.9 0 -1 4.3 -0.9 4.2 -3.7 0.9 -3.8 1 0 0.8 c0 0.4 -0.9 1.7 -2 2.8 l-2 2 -3.7 -0.1 -3.8 0 -2.1 -1.1z m7.4 -6.5 l2.4 -0.6 -1.4 -0.8 -1.3 -0.9 2.7 0 2.7 0 -0.5 -1.4 -0.5 -1.4 2.1 -0.7 2.1 -0.7 -0.6 -4 -0.7 -4.1 1.7 0.7 1.8 0.6 -1.7 -2.4 -1.6 -2.5 0 -2.1 0 -2.1 -1.1 0.7 -1.1 0.6 -2.6 -2.4 -2.7 -2.4 -1.2 0.2 c-0.7 0.1 -2 0.2 -2.8 0.3 l-1.5 0.1 -2.9 2.8 -2.9 2.8 0.8 1.4 c0.4 0.8 1.5 4.8 2.5 8.8 l1.7 7.3 1.5 1.4 c1.6 1.7 1.9 1.7 5.1 0.8z m-7.8 -2.8 c0 -0.3 -0.2 -0.5 -0.5 -0.5 -0.3 0 -0.5 0.2 -0.5 0.5 0 0.3 0.2 0.5 0.5 0.5 0.3 0 0.5 -0.2 0.5 -0.5z m-2.3 -9.2 l-0.7 -0.6 0 1.3 0 1.3 0.7 -0.6 0.6 -0.7 -0.6 -0.7z m22.3 -2.8 c0 -0.3 -0.2 -0.5 -0.5 -0.5 -0.3 0 -0.5 0.2 -0.5 0.5 0 0.3 0.2 0.5 0.5 0.5 0.3 0 0.5 -0.2 0.5 -0.5z m-23 -1 c0 -0.3 -0.2 -0.5 -0.5 -0.5 -0.3 0 -0.5 0.2 -0.5 0.5 0 0.3 0.2 0.5 0.5 0.5 0.3 0 0.5 -0.2 0.5 -0.5z m0 -6 c0 -0.3 -0.2 -0.5 -0.5 -0.5 -0.3 0 -0.5 0.2 -0.5 0.5 0 0.3 0.2 0.5 0.5 0.5 0.3 0 0.5 -0.2 0.5 -0.5z m1 -2 c0 -0.3 -0.2 -0.5 -0.5 -0.5 -0.3 0 -0.5 0.2 -0.5 0.5 0 0.3 0.2 0.5 0.5 0.5 0.3 0 0.5 -0.2 0.5 -0.5z m12 -3 c0 -0.3 -0.2 -0.5 -0.5 -0.5 -0.3 0 -0.5 0.2 -0.5 0.5 0 0.3 0.2 0.5 0.5 0.5 0.3 0 0.5 -0.2 0.5 -0.5z m7 -7 c0 -0.3 -0.2 -0.5 -0.5 -0.5 -0.3 0 -0.5 0.2 -0.5 0.5 0 0.3 0.2 0.5 0.5 0.5 0.3 0 0.5 -0.2 0.5 -0.5z"/>
  <path d="M239 150 l0 -4 1 0 1 0 0 -1.5 0 -1.4 1.9 -1.1 2 -1 2.8 0 2.9 0 2.2 1.6 2.2 1.5 0 3.5 0 3.4 -1 0 c-0.6 0 -1.3 -0.7 -1.6 -1.5 l-0.6 -1.5 -1.5 0 -1.4 0 0.5 -0.8 0.5 -0.8 -3.4 0 -3.5 0.1 -0.2 2.5 c0 1.4 -0.1 3.1 -0.1 3.8 l0.1 1.2 -1.9 0 -1.9 0 0 -4z"/>
  <path d="M47 123 l0 -1 -1.5 0 -1.5 0 0 -4 0 -4 4.4 0 4.4 0 0.6 2.3 c0.3 1.2 0.6 3.4 0.6 5 l0 2.7 -3.5 0 -3.5 0 0 -1z"/>
  <path d="M43 109.1 l0 -3 -0.9 -0.5 c-0.5 -0.3 -1.2 -1.8 -1.5 -3.2 l-0.7 -2.6 1.3 -2.9 1.3 -2.9 2.6 0 2.5 0 1.8 1.3 1.7 1.3 0.6 7.7 0.6 7.7 -4.7 0 -4.6 0 0 -2.9z"/>
  <path d="M284.5 95.9 l-4 -0.8 -13.1 0 c-7.2 -0.1 -24.5 -0.5 -38.5 -1.1 -14 -0.5 -34.3 -1.2 -45.1 -1.6 l-19.8 -0.6 0 -3.2 0 -3.1 3.9 -1.2 3.9 -1.3 28.4 1 c15.6 0.5 33.5 1.2 39.8 1.5 6.3 0.3 20.7 0.7 31.9 1 l20.4 0.4 -1 -1 -1 -1 -6.9 -1.4 -6.9 -1.3 -31 -0.6 c-49.4 -1 -60.4 -1.3 -89 -2.4 -14.8 -0.6 -45.9 -1.4 -69 -1.7 -23.1 -0.3 -43.1 -0.8 -44.4 -1.1 l-2.4 -0.5 0.6 -6.1 0.5 -6.1 -1 -1.7 -1.1 -1.7 2.7 -3.6 2.7 -3.5 2.9 -1.1 2.9 -1 2.6 -4 2.5 -4.1 1.4 0 1.5 0 0.6 -1.9 0.6 -1.9 4.4 -3.7 4.5 -3.6 0 -1.3 0 -1.4 3 -1.2 3 -1.3 0.6 -2.4 0.6 -2.4 3 -1.5 2.9 -1.5 2 -3.4 2 -3.3 3 -1.1 2.9 -1 0 -1.5 0 -1.6 4 -2.5 4 -2.5 0 -1 0 -1 5.5 0 5.5 0 0 1.9 0 1.8 -2.3 2.4 c-1.3 1.3 -6.3 6.3 -11.3 11 -4.9 4.7 -10.8 10.6 -13 13 -5.6 5.9 -28.9 28.6 -33.7 32.6 -4.3 3.8 -4.5 4.6 -1.3 6.1 l2.3 1 30.9 0.2 c17 0.1 39.9 0.6 50.9 1.1 11 0.5 39.4 1.4 63 1.9 23.7 0.6 53.4 1.3 66 1.6 l23 0.5 6 1 6 1.1 2.8 2.6 2.7 2.6 0 4 0 4.1 -3 2 -3 2 0 1.3 0 1.2 -4.2 -0.1 c-2.4 -0.1 -6.1 -0.5 -8.3 -1z"/>
  <path d="M128.5 91 c-11 -0.4 -35 -0.8 -53.2 -0.9 l-33.3 -0.1 0 -4.5 0 -4.4 51.3 0.4 c28.1 0.2 55.1 0.7 60 1.1 l8.7 0.6 0 3.8 0 3.8 -2.2 0.6 c-1.3 0.3 -4.3 0.5 -6.8 0.4 -2.5 -0.1 -13.5 -0.5 -24.5 -0.8z"/>
  <path d="M321.6 89.7 l-1.5 -2.2 -0.7 -5.6 -0.6 -5.6 2.1 -4.4 c1.2 -2.4 4.6 -7.8 7.6 -11.9 3 -4.1 6.3 -8.7 7.3 -10.1 0.9 -1.4 3.4 -4.5 5.4 -6.8 l3.8 -4.1 2.5 0 2.5 0 0 14.1 0 14 -1.2 2.2 c-1.1 2.3 -9.8 13.8 -11 14.7 -0.3 0.3 -1 1.8 -1.3 3.3 l-0.7 2.7 -1.8 0 -1.9 0 -0.6 1 -0.6 1 -3.9 0 -4 0 -1.4 -2.3z"/>
 </g>
 <g fill="#4c5639">
  <path d="M91 339 l-1.2 -2.2 0.5 -2.5 0.4 -2.4 -1.4 -5 -1.5 -4.9 -3.7 0 -3.8 0 -1.6 -3.7 -1.7 -3.8 -3 -14.5 c-2.6 -12 -10.9 -52.8 -12.7 -62 -0.3 -1.4 -1.6 -7.2 -3 -13 -1.4 -5.8 -3.1 -13.6 -3.9 -17.5 -0.8 -3.8 -1.7 -8.1 -2 -9.5 -1.3 -5.7 -2.6 -12.7 -3 -16 -0.5 -4.4 -3.1 -17.9 -4.3 -22.8 -0.5 -2 -1.7 -8.4 -2.6 -14.1 -0.9 -5.8 -1.8 -10.7 -2 -11.1 -0.2 -0.3 -1.1 -7.1 -2 -14.9 -0.8 -7.9 -1.8 -14.8 -2.1 -15.3 l-0.6 -1 1.2 -2.3 1.2 -2.3 1.9 -0.5 1.9 -0.5 0 -1.6 0 -1.6 2.5 0 2.5 0 0 2.1 0 2.1 -1.5 -0.5 -1.4 -0.6 -0.5 0.7 c-0.2 0.4 0 1.7 0.5 3 l0.8 2.2 1.6 0 1.5 0 0 -1.5 0 -1.5 1.5 0 c0.8 0 1.5 0.1 1.6 0.3 0 0.1 1.3 9.4 2.9 20.7 4.1 28.7 5.8 39.8 6.9 43.4 0.5 1.7 1.4 6.9 2 11.5 l1.1 8.5 1 1 1 1 0 5.6 0 5.5 -1 1.5 -1 1.5 0 -2.1 0 -2.2 -1.5 -1.2 -1.5 -1.3 -0.6 0.5 -0.5 0.5 1.3 4.7 1.2 4.6 1.3 0 1.3 0 0 -1.5 0 -1.5 1.9 0 1.8 0 2.2 10 c1.1 5.6 2.1 11.6 2.1 13.5 l0 3.4 1 0.6 1 0.6 0 2.5 c0 1.3 0.4 3.2 1 4.2 1.3 2.4 4 17.1 4 22 l0 4.2 0.9 0 0.9 0 0.7 5.3 c0.4 2.8 1.3 7.7 2.1 10.7 l1.4 5.4 0 4.2 0 4.2 1.2 0.4 1.1 0.4 0.4 11 c0.3 10.9 0 12.2 -1.2 5.2 l-0.6 -3.8 -1.4 0 -1.5 0 0 1 c0 0.6 0.3 1 0.8 1 l0.7 0 0.2 5.1 0.1 5.2 1.3 0.8 1.4 0.8 0.7 -2 0.8 -2 1 0.6 1 0.6 0 5.3 0 5.3 13.3 -0.1 c7.2 0 16.8 0.1 21.2 0.2 4.4 0.1 17.9 -0.2 30 -0.8 12.1 -0.5 28.2 -0.9 35.8 -1 l13.7 0 0 -1.1 0 -1.1 4.3 0.3 c2.4 0.2 4.7 0 5.2 -0.3 0.6 -0.3 6.3 -0.9 12.8 -1.3 l11.7 -0.7 0 -1 0 -1.1 5 0.5 5 0.5 0 -0.8 0 -0.9 2.7 0 c1.4 0 6 -0.6 10.2 -1.4 4.2 -0.8 11.4 -1.9 16.1 -2.5 l8.5 -1.2 6 1.1 c3.3 0.5 6.3 1 6.8 1 l0.7 0 0 3 0 3 1 0 1 0 0 1.3 0 1.3 -5.7 1.8 -5.7 1.7 -13.1 2 c-7.1 1.1 -13.8 2.2 -14.8 2.5 -1 0.3 -4.5 0.5 -7.7 0.5 l-5.9 0 -0.6 0.8 -0.5 0.9 -4.2 0.6 c-7.7 1.1 -33.1 3.5 -43.8 4.1 -5.8 0.4 -11.6 0.8 -12.8 1 l-2.4 0.4 -1.9 -1.2 -2 -1.2 -0.9 1.5 -0.9 1.4 -44 0.4 -44 0.3 -1.1 -2.1z m8.8 -8 l2.2 0 0 -0.9 0 -0.9 -4.2 1 c-2.3 0.5 -4.5 1.2 -4.8 1.5 l-0.5 0.6 2.5 -0.6 c1.4 -0.4 3.5 -0.7 4.8 -0.7z m14.2 -1 l0 -1 -2.6 0 -2.5 0 0.6 1 0.6 1 2 0 1.9 0 0 -1z m2 0.5 c0 -0.3 -0.2 -0.5 -0.5 -0.5 -0.3 0 -0.5 0.2 -0.5 0.5 0 0.3 0.2 0.5 0.5 0.5 0.3 0 0.5 -0.2 0.5 -0.5z m10 0.1 c0 -0.2 -1.1 -0.6 -2.4 -0.8 l-2.5 -0.5 -1.3 0.8 -1.3 0.9 3.8 0 c2 0 3.7 -0.2 3.7 -0.4z m9.8 -0.3 c-1 -0.2 -2.6 -0.2 -3.5 0 l-1.8 0.5 3.5 0 3.5 0 -1.7 -0.5z m8.9 0 l-0.7 -0.6 -0.7 0.6 -0.6 0.7 1.3 0 1.3 0 -0.6 -0.7z m-37.4 -1 c-0.7 -0.2 -2.1 -0.2 -3 0 l-1.8 0.5 3 0 3 0 -1.2 -0.5z m51.7 0.2 c0 -0.3 -0.2 -0.5 -0.5 -0.5 -0.3 0 -0.5 0.2 -0.5 0.5 0 0.3 0.2 0.5 0.5 0.5 0.3 0 0.5 -0.2 0.5 -0.5z m4.3 -0.2 l-1.3 -0.5 -1.2 0.5 -1.3 0.5 2.5 0 2.5 0 -1.2 -0.5z m2.7 0.2 c0 -0.3 -0.2 -0.5 -0.5 -0.5 -0.3 0 -0.5 0.2 -0.5 0.5 0 0.3 0.2 0.5 0.5 0.5 0.3 0 0.5 -0.2 0.5 -0.5z m8 -1 c0 -0.3 -0.2 -0.5 -0.5 -0.5 -0.3 0 -0.5 0.2 -0.5 0.5 0 0.3 0.2 0.5 0.5 0.5 0.3 0 0.5 -0.2 0.5 -0.5z m3.7 -0.2 l-0.7 -0.6 -0.7 0.6 -0.6 0.7 1.3 0 1.3 0 -0.6 -0.7z m5.6 0 c-0.7 -0.2 -2.1 -0.2 -3 0 l-1.8 0.5 3 0 3 0 -1.2 -0.5z m30.7 -1.3 l4.5 -0.8 -12 0.5 c-6.6 0.3 -12.2 0.7 -12.4 0.9 -0.8 0.7 15.4 0.3 19.9 -0.6z m7.7 -1.7 l-0.7 -0.6 -0.7 0.6 -0.6 0.7 1.3 0 1.3 0 -0.6 -0.7z m5 0.1 l-0.6 -0.6 -1.3 0.5 -1.3 0.5 1.9 0.1 1.9 0.1 -0.6 -0.6z m4.3 -0.9 c0 -0.3 -0.2 -0.5 -0.5 -0.5 -0.3 0 -0.5 0.2 -0.5 0.5 0 0.3 0.2 0.5 0.5 0.5 0.3 0 0.5 -0.2 0.5 -0.5z m22.3 -1.4 l2.7 -0.1 0 -1.1 0 -1.1 -1.5 0.6 c-0.9 0.3 -5.2 0.9 -9.6 1.2 -4.4 0.4 -8.1 1 -8.4 1.3 l-0.3 0.7 7.1 -0.8 c4 -0.4 8.4 -0.7 10 -0.7z m7.2 -2.1 l0.6 -1 -0.8 0 c-0.4 0 -1.5 0.5 -2.3 1 l-1.5 1 1.7 0 1.7 0 0.6 -1z m37.8 -1.7 l-1.3 -0.5 0 -1.3 0 -1.3 -2.8 -0.4 -2.7 -0.4 -2.5 0.7 -2.5 0.7 3.6 0.1 3.6 0.1 1.9 2.5 1.8 2.5 1.1 -1.1 1 -1.1 -1.2 -0.5z m-33.3 0.2 c0 -0.3 -0.2 -0.5 -0.5 -0.5 -0.3 0 -0.5 0.2 -0.5 0.5 0 0.3 0.2 0.5 0.5 0.5 0.3 0 0.5 -0.2 0.5 -0.5z m2.7 -0.2 l-0.7 -0.6 -0.7 0.6 -0.6 0.7 1.3 0 1.3 0 -0.6 -0.7z m3.3 0.2 c0 -0.3 -0.2 -0.5 -0.5 -0.5 -0.3 0 -0.5 0.2 -0.5 0.5 0 0.3 0.2 0.5 0.5 0.5 0.3 0 0.5 -0.2 0.5 -0.5z m5.3 -1.2 l-1.3 -0.5 -1.2 0.5 -1.3 0.5 2.5 0 2.5 0 -1.2 -0.5z m3.7 -0.8 c0 -0.3 -0.2 -0.5 -0.5 -0.5 -0.3 0 -0.5 0.2 -0.5 0.5 0 0.3 0.2 0.5 0.5 0.5 0.3 0 0.5 -0.2 0.5 -0.5z m-195.7 -22.7 c-0.7 -4 -0.6 -3.9 -2.1 -2.9 l-1.3 0.8 0.7 2.6 0.6 2.7 1.4 0 1.4 0 -0.7 -3.2z m-3.3 -18.3 c0 -0.3 -0.2 -0.5 -0.5 -0.5 -0.3 0 -0.5 0.2 -0.5 0.5 0 0.3 0.2 0.5 0.5 0.5 0.3 0 0.5 -0.2 0.5 -0.5z m-2 -10 c0 -0.3 -0.2 -0.5 -0.5 -0.5 -0.3 0 -0.5 0.2 -0.5 0.5 0 0.3 0.2 0.5 0.5 0.5 0.3 0 0.5 -0.2 0.5 -0.5z m-1 -3.4 c0 -1.1 -0.4 -3.1 -1 -4.5 l-1 -2.6 -1 0 -1 0 0 3 0 3.1 1.6 0.6 1.6 0.6 -1.4 0.8 -1.3 0.9 1.8 0 1.7 0 0 -1.9z m-3 -16.6 l0 -1.5 -1.5 0 -1.5 0 0 1.5 0 1.5 1.5 0 1.5 0 0 -1.5z m-1.5 -6.5 c-0.3 -0.5 -1.2 -1 -1.8 -1 l-1.2 0 1.5 1 c1.9 1.2 2.3 1.2 1.5 0z m-0.5 -3 l0 -1 -1.5 0 -1.5 0 0 1 0 1 1.5 0 1.5 0 0 -1z m-1.5 -4 c-0.3 -0.5 -1 -1 -1.6 -1 -0.5 0 -0.9 0.5 -0.9 1 l0 1 1.6 0 1.5 0 -0.6 -1z m-0.5 -2.9 c0 -0.5 -0.3 -2.3 -0.6 -4 l-0.6 -3.1 -1.4 0 -1.4 0 0 2 0 2 1.8 0.1 1.7 0.1 -1.2 0.5 -1.3 0.5 0 1.4 0 1.4 1.5 0 1.5 0 0 -0.9z m-3.3 -11.8 l-0.7 -0.6 -0.7 0.6 -0.6 0.7 1.3 0 1.3 0 -0.6 -0.7z m0.3 -3.8 l0 -1.4 -1.5 0.5 c-0.8 0.4 -1.5 1 -1.5 1.5 l0 0.9 1.5 0 1.5 0 0 -1.5z m-1 -4.5 l0 -1 -1.5 0 -1.5 0 0 1 0 1 1.5 0 1.5 0 0 -1z m-1 -4.5 c0 -0.3 -0.2 -0.5 -0.5 -0.5 -0.3 0 -0.5 0.2 -0.5 0.5 0 0.3 0.2 0.5 0.5 0.5 0.3 0 0.5 -0.2 0.5 -0.5z m-3 -13.5 l0 -2 -1.5 0 -1.5 0 0 1.4 0 1.4 1.3 0.5 c0.6 0.3 1.3 0.6 1.5 0.6 0.1 0.1 0.2 -0.8 0.2 -1.9z m-1 -5.4 c0 -0.7 -0.3 -2.7 -0.6 -4.4 l-0.6 -3.1 -1.4 0.6 -1.4 0.5 0 1.9 0 1.9 1.8 0.1 1.7 0.1 -1.2 0.5 -1.3 0.5 0 1.4 0 1.4 1.5 0 1.5 0 0 -1.4z m-3 -10.1 c0 -0.3 -0.2 -0.5 -0.5 -0.5 -0.3 0 -0.5 0.2 -0.5 0.5 0 0.3 0.2 0.5 0.5 0.5 0.3 0 0.5 -0.2 0.5 -0.5z m0.3 -4.7 l-0.5 -2.7 -1.4 0.6 -1.4 0.5 0 1.4 0 1.4 1.5 0 1.5 0 0 1.2 c0 0.6 0.2 0.9 0.4 0.7 0.2 -0.2 0.2 -1.6 -0.1 -3.1z m-1.6 -4.4 l-0.6 -0.6 -1.3 0.5 -1.3 0.5 1.9 0.1 1.9 0.1 -0.6 -0.6z m0.3 -2.4 l0 -1 -1.7 0 -1.8 0 1.5 1 c1.9 1.2 2 1.2 2 0z m-1.3 -2.6 l-0.6 -0.6 -1.3 0.5 -1.3 0.5 1.9 0.1 1.9 0.1 -0.6 -0.6z m0.3 -2.9 l0 -1.5 -1.5 0 -1.5 0 0 1.5 0 1.5 1.5 0 1.5 0 0 -1.5z m-1 -6.5 l0 -1 -1.5 0 -1.5 0 0 1 0 1 1.5 0 1.5 0 0 -1z m-1 -5.5 c0 -0.3 -0.2 -0.5 -0.5 -0.5 -0.3 0 -0.5 0.2 -0.5 0.5 0 0.3 0.2 0.5 0.5 0.5 0.3 0 0.5 -0.2 0.5 -0.5z m-1 -5 l0 -1.4 -1.6 0.6 -1.6 0.6 1.4 0.8 c1.7 1.1 1.8 1.1 1.8 -0.6z m-1 -4 l0 -1.5 -0.9 0 c-0.6 0 -1.2 0.4 -1.5 0.9 l-0.5 0.8 0.6 0.7 c0.3 0.3 1 0.6 1.5 0.6 l0.8 0 0 -1.5z m-1 -6 l0 -2.5 -1.5 0 -1.5 0 0 2.5 0 2.5 1.5 0 1.5 0 0 -2.5z m-1 -12 c0 -0.3 -0.2 -0.5 -0.5 -0.5 -0.3 0 -0.5 0.2 -0.5 0.5 0 0.3 0.2 0.5 0.5 0.5 0.3 0 0.5 -0.2 0.5 -0.5z m-1 -2.5 l0 -1 -1.5 0 -1.5 0 0 1 0 1 1.5 0 1.5 0 0 -1z m-1 -10 l0 -0.9 -1.5 0.5 c-0.8 0.4 -1.5 0.8 -1.5 1 0 0.2 0.7 0.4 1.5 0.4 l1.5 0 0 -1z m0 -3.5 c0 -0.3 -0.2 -0.5 -0.5 -0.5 -0.3 0 -0.5 0.2 -0.5 0.5 0 0.3 0.2 0.5 0.5 0.5 0.3 0 0.5 -0.2 0.5 -0.5z"/>
  <path d="M313.7 304.3 c-0.4 -0.3 -0.7 -1.4 -0.7 -2.4 l0 -1.8 -1.7 -0.9 -1.6 -0.9 0.6 -6.1 0.5 -6.1 -1 -3.8 c-0.6 -2.1 -1.2 -5.8 -1.3 -8.3 -0.2 -2.5 -1 -8.5 -1.8 -13.5 -0.9 -4.9 -2.1 -13.4 -2.7 -18.8 l-1.1 -9.7 0.6 -2 0.6 -2 -1.1 0 -1.2 0 0.4 -4 0.4 -4 -1 0 -0.9 0 0.7 -5.7 0.6 -5.8 -1.5 -10.5 -1.6 -10.5 -1.1 -0.6 -1 -0.6 -0.4 -11.9 c-0.2 -6.6 -0.9 -16.7 -1.5 -22.6 l-1.3 -10.8 -0.6 0 -0.7 0 -0.6 -13.7 -0.7 -13.8 -1 -0.3 -1 -0.4 0 -2.9 0 -2.9 1.7 -2 1.7 -2 1.3 0 1.3 0 -1 2.6 c-1.4 3.6 -1.2 4.1 0.5 1.8 l1.5 -1.9 1.4 1.9 1.5 1.8 1 5 c0.6 2.7 1.6 10.2 2.1 16.6 0.6 6.4 1.4 14.2 1.9 17.2 0.5 3 0.9 7.7 0.9 10.3 0 2.7 0.5 7.7 1.1 11 1.4 8.3 4.2 31.1 5.2 42.2 1.6 18.3 3 30.2 4.5 39 0.9 4.9 2 14.3 2.6 21 1.4 17.5 1.5 18.6 2.3 22.8 l0.8 3.7 -1.8 2 -1.8 2 -0.7 -0.5 c-0.5 -0.3 -1.1 -2.3 -1.5 -4.5 l-0.7 -4 -0.7 0 -0.8 0 0.8 5.2 0.8 5.1 1.3 0.9 1.3 0.8 -1.6 0 c-0.9 0 -1.9 -0.3 -2.2 -0.7z m-0.2 -22.2 l-0.8 -5.6 -0.4 1.3 -0.5 1.4 0.8 6.6 0.8 6.7 0.4 -2.4 c0.2 -1.4 0.1 -5 -0.3 -8z m-2.4 -16.2 l-1.1 -3.4 0.5 3.4 c0.3 1.8 0.6 4.5 0.6 6 l0.2 2.6 0.4 -2.6 0.4 -2.7 -1 -3.3z m-0.5 -9.7 c-1.1 -1 -1.4 0.3 -0.8 3.3 l0.7 3 0.3 -2.8 c0.2 -1.6 0.1 -3.1 -0.2 -3.5z m-0.9 -4.4 l-0.5 -1.3 0 2.5 0 2.5 0.5 -1.2 0.5 -1.3 -0.5 -1.2z m-1 -3.5 l-0.7 -0.6 0 1.3 0 1.3 0.7 -0.6 0.6 -0.7 -0.6 -0.7z m-0.7 -8.8 c0 -0.3 -0.2 -0.5 -0.5 -0.5 -0.3 0 -0.5 0.2 -0.5 0.5 0 0.3 0.2 0.5 0.5 0.5 0.3 0 0.5 -0.2 0.5 -0.5z m-1.3 -12.7 l-0.4 -2.3 0 4.5 0 4.5 0.4 -2.2 c0.2 -1.3 0.2 -3.3 0 -4.5z m-1.2 -12.5 c-0.6 -10.3 -3 -27.7 -4.5 -32.8 l-0.9 -3 0.5 4.5 c1.2 9.4 1.3 10.6 1.7 15.5 0.5 5.3 1.8 16 2.3 18.5 0.1 0.8 0.3 2.7 0.3 4.3 0.1 1.5 0.3 2.7 0.7 2.7 l0.5 0 -0.6 -9.7z m-5.8 -44 l-0.5 -1.8 0 3 0 3 0.5 -1.2 c0.2 -0.7 0.2 -2.1 0 -3z m-0.7 -14.3 l-1.3 -10.1 -0.8 1.3 -0.8 1.2 0.5 0.8 c0.3 0.4 0.7 3.1 1 6 0.3 2.9 0.7 6.2 0.9 7.3 0.2 1.1 0.4 2.6 0.4 3.4 l0.1 1.4 0.6 -0.6 0.6 -0.6 -1.2 -10.1z m-2.3 -16.7 l-0.5 -1.8 0 3.5 0 3.5 0.5 -1.7 c0.2 -1 0.2 -2.6 0 -3.5z m-0.7 -2.8 c0 -0.3 -0.2 -0.5 -0.5 -0.5 -0.3 0 -0.5 0.2 -0.5 0.5 0 0.3 0.2 0.5 0.5 0.5 0.3 0 0.5 -0.2 0.5 -0.5z m0 -2 c0 -0.3 -0.2 -0.5 -0.5 -0.5 -0.3 0 -0.5 0.2 -0.5 0.5 0 0.3 0.2 0.5 0.5 0.5 0.3 0 0.5 -0.2 0.5 -0.5z m-1.3 -13.2 l-0.5 -1.8 0 3 0 3 0.5 -1.2 c0.2 -0.7 0.2 -2.1 0 -3z m-0.7 -7.3 l0 -4 -0.8 0 -0.8 0 0.4 4 c0.2 2.2 0.6 4 0.8 4 0.2 0 0.4 -1.8 0.4 -4z"/>
  <path d="M258 225.6 l0 -1.5 1.8 -0.3 c0.9 -0.2 2.5 -0.2 3.5 0 l1.7 0.4 0 1.4 0 1.4 -3.5 0 -3.5 0 0 -1.4z"/>
  <path d="M314 225 l0 -2 1 0 1 0 0 2 0 2 -1 0 -1 0 0 -2z"/>
  <path d="M156.6 203.1 c-0.3 -0.4 -1 -2 -1.5 -3.5 l-1.1 -2.6 2.5 0 2.5 0 0 3.5 0 3.5 -0.9 0 c-0.6 0 -1.2 -0.4 -1.5 -0.9z"/>
  <path d="M260.5 191 c-0.6 -1 -1 -2.5 -2 -8.2 l-0.5 -2.8 1.9 0 1.8 0 0.7 3.8 c0.3 2 0.6 4.7 0.6 6 l0 2.2 -0.9 0 c-0.6 0 -1.3 -0.4 -1.6 -1z"/>
  <path d="M301.3 109.3 l0.7 -0.6 0.7 0.6 0.6 0.7 -1.3 0 -1.3 0 0.6 -0.7z"/>
  <path d="M252.7 93.1 l-0.5 -2 2.8 0.4 2.9 0.3 -0.6 -1.4 -0.5 -1.4 -5.2 0 c-2.9 0 -12.1 -0.3 -20.4 -0.7 l-15.2 -0.6 0 1 0 1.1 3.5 0.6 3.5 0.7 0 1.5 0 1.6 -8.2 -0.8 -8.3 -0.8 -9.1 0.3 -9.1 0.2 -0.5 -1.9 -0.6 -2 3.1 0.2 3 0.1 0.4 -1.2 0.4 -1.1 -7.8 -0.4 -7.8 -0.3 -0.7 0.9 -0.6 1 -1.6 -1.3 -1.5 -1.2 -2.3 1.3 -2.3 1.3 8.5 0.5 8.5 0.5 -3.5 0.7 c-1.9 0.4 -9.2 1.1 -16.1 1.4 l-12.7 0.7 -1.2 -2.2 -1.2 -2.3 2.1 0.7 2.1 0.6 0 -1.5 0 -1.6 -2.2 0 c-1.3 0 -3.3 -0.3 -4.5 -0.6 l-2.3 -0.6 0 1.6 0 1.6 2 0 1.9 0 -0.5 1.5 -0.6 1.5 -5.2 0 -5.1 -0.1 -1.9 -1.4 -2 -1.5 2.7 0 2.7 0 0 -0.9 c0 -1.3 -2.7 -2.1 -7.1 -2.1 l-3.9 0 0 1.1 0 1.1 2 0.5 2 0.5 0 1.4 0 1.4 -4.5 0 -4.5 0 0 -1.6 0 -1.6 2 -0.5 2 -0.5 0 -0.9 0 -0.9 -8.5 0 -8.5 0 0 1 0 1 2 0 1.9 0 -0.5 1.5 -0.6 1.5 -3.3 0 -3.3 0 -0.5 -1.2 -0.5 -1.3 -0.1 1.3 -0.1 1.2 -6.4 0 -6.4 0 -0.4 -1.2 -0.4 -1.2 -4.1 1.3 -4.1 1.4 -3.4 -0.8 c-1.8 -0.4 -7.3 -1 -12.3 -1.4 l-9 -0.7 11.3 -0.2 11.2 -0.2 0 -0.8 c0 -0.5 -0.6 -0.9 -1.2 -0.9 -0.7 0 -9.3 -0.4 -19 -0.8 l-17.8 -0.8 0 1.7 0 1.6 1.5 0 1.5 0 0 1.4 0 1.4 -2.2 0.6 c-3.3 0.9 -3.8 0.8 -3.8 -0.8 l0 -1.5 -2.2 -1.5 -2.2 -1.6 0.3 -3.7 0.3 -3.6 1.4 -1.4 1.4 -1.4 0 -4 0 -4 1 0.6 c1.2 0.8 1.3 0.3 0.1 -2.8 l-1 -2.5 -2 -0.7 -2.1 -0.6 -0.6 -2.4 -0.6 -2.4 1.4 -1.6 c0.7 -0.8 3.9 -4.1 7.2 -7.3 3.2 -3.1 14.1 -13.9 24.2 -24 10.2 -10 18.7 -18.2 19 -18.2 0.4 0 1.5 -1.1 2.6 -2.5 l1.9 -2.5 6.5 0 6.5 0 -1.5 2.9 -1.5 2.9 -3.6 2 -3.5 2.1 0 1.6 0 1.6 -3 1.1 -3.1 1 -1.5 3 -1.5 2.9 -3.4 2 -3.3 2 -0.6 2.3 -0.6 2.3 -3 1.3 -3 1.2 0 1.4 0 1.3 -4.5 3.6 -4.4 3.7 -0.6 1.9 -0.6 1.9 -1.5 0 -1.4 0 -2.5 4.1 -2.6 4 -2.9 1 -2.9 1.1 -2.7 3.5 -2.7 3.5 2 -1 c2.1 -1.1 29.4 -27.3 36.7 -35.1 2.2 -2.4 8.1 -8.3 13 -13 5 -4.7 10 -9.7 11.3 -11 l2.3 -2.4 0 1.2 c0 0.7 -0.7 2.5 -1.5 4 l-1.4 2.9 -3.6 2 -3.5 2.1 0 1.6 0 1.6 -3 1.1 -3.1 1 -1.5 3 -1.5 2.9 -3.4 2 -3.3 2 -0.6 2.3 -0.6 2.3 -3 1.3 -3 1.2 0 1.4 0 1.3 -4.5 3.6 -4.4 3.7 -0.6 1.9 -0.6 1.9 -1.5 0 -1.4 0 -2.5 4.1 -2.6 4 -2.9 1 -2.9 1.1 -2.5 3.3 -2.6 3.4 0 1.5 0 1.5 1.8 0.9 1.7 0.9 42 0.7 c23.1 0.4 55.5 1.2 72 1.8 16.5 0.6 37.2 1.2 46 1.3 8.8 0 28.4 0.4 43.5 0.8 l27.5 0.8 7 1.1 7 1.1 2.8 1.6 2.7 1.5 0 2 0 2 -2.7 -2.6 -2.8 -2.6 -6 -1.1 -6 -1 -30.5 -0.4 -30.5 -0.4 9.5 0.7 c5.2 0.4 18.3 0.8 29 0.9 l19.5 0.1 6.6 1.4 6.5 1.3 2.2 1.4 2.2 1.4 0 1.5 c0 0.8 -0.4 2.1 -0.9 2.8 l-0.8 1.4 -8.2 -0.4 -8.1 -0.3 0 1.3 0 1.2 3.3 0.1 3.2 0.1 -1.7 0.5 -1.8 0.4 0 1 0 0.9 -3.5 0 -3.5 0 0 -1 0 -1 -4.5 0 -4.5 0 0 1 0 1 -6.4 0 -6.4 0 -0.5 -1.9z m9.1 -3.6 l-0.6 -0.6 -0.6 1.8 -0.7 1.8 1.2 -1.2 1.3 -1.3 -0.6 -0.5z m16.2 1.5 l0 -1 -5.2 0 c-2.9 0 -6.3 -0.3 -7.5 -0.6 l-2.3 -0.6 0 1.6 0 1.6 7.5 0 7.5 0 0 -1z m-70.2 -2.2 l-0.5 -1.3 -2.3 -0.3 -2.3 -0.4 -0.8 1.4 -0.9 1.3 0 -1.2 0 -1.3 -1.6 0 c-0.8 0 -2.2 0.6 -2.9 1.4 l-1.4 1.3 6.6 0.2 6.5 0.2 -0.4 -1.3z m7.2 0.3 c0 -0.5 -0.7 -1.2 -1.6 -1.5 -2.2 -0.9 -2.4 -0.8 -2.4 0.9 l0 1.5 2 0 2 0 0 -0.9z m-46.3 -0.8 l-0.7 -0.6 -0.7 0.6 -0.6 0.7 1.3 0 1.3 0 -0.6 -0.7z m-25.1 -3 l-0.6 -0.6 -0.6 0.6 -0.6 0.6 0.8 1.2 0.8 1.3 0.4 -1.3 c0.2 -0.7 0.1 -1.5 -0.2 -1.8z m15.1 1 l-0.7 -0.6 0 1.3 0 1.3 0.7 -0.6 0.6 -0.7 -0.6 -0.7z m-61.7 -0.3 l0 -1 -1.2 -0.1 c-3.2 -0.3 -8.4 0.4 -9.8 1.2 l-1.5 0.8 6.3 0.1 6.2 0 0 -1z m5.4 -0.5 l-0.6 -1.5 -1.9 0 -1.9 0 0 0.8 c0 1.4 1.2 2.2 3.1 2.2 l1.8 0 -0.5 -1.5z m8.6 0.6 l0 -0.9 -2.5 -0.6 -2.6 -0.7 -0.9 0.6 c-0.6 0.4 -1 1 -1 1.6 l0 0.9 3.5 0 3.5 0 0 -0.9z m107.7 -9.5 l0.5 -0.5 -21.8 0.1 -21.9 0.2 8.5 0.7 8.5 0.6 12.8 -0.3 c7.1 -0.1 13.1 -0.5 13.4 -0.8z m-51.4 -1.3 c-4.6 -0.2 -12 -0.2 -16.5 0 l-8.3 0.3 16.5 0 16.5 0 -8.2 -0.3z m-28.5 -0.8 c-0.2 -0.3 -20.2 -0.8 -44.4 -1.1 -24.1 -0.3 -44.9 -0.7 -46.1 -1 -1.3 -0.2 -2.6 -0.4 -3 -0.3 -0.4 0 -1 -0.8 -1.4 -1.8 l-0.8 -1.8 0 1.7 -0.1 1.7 1.3 0.8 1.2 0.8 25 0.5 c38.1 0.8 68.9 1.1 68.3 0.5z"/>
  <path d="M294 92.3 c0 -0.5 1.2 -1.6 2.6 -2.6 l2.5 -1.9 0.6 0.5 0.5 0.5 -0.7 2.1 -0.6 2.1 -2.5 0 -2.4 0 0 -0.7z"/>
  <path d="M236.3 91.3 c2 -0.2 5.4 -0.2 7.5 0 l3.7 0.4 -7.5 0 -7.5 0 3.8 -0.4z"/>
 </g>
 <g fill="#567425">
  <path d="M317.4 230.5 l-0.6 -3.5 -1.4 0 -1.4 0 0 -2 0 -2 1 0 1 0 0 -1.5 0 -1.5 1.4 0 c2.1 0 2.4 0.7 3.2 7.8 l0.7 6.2 -1.6 0 -1.6 0 -0.7 -3.5z"/>
  <path d="M304.5 113.1 l0.5 -1 -2.2 -1.5 -2.2 -1.6 1.6 0 1.7 0 -0.5 -1.5 -0.6 -1.5 2.1 0 2.1 0 0 4 0 4 -1.6 0 -1.5 0 0.6 -0.9z"/>
  <path d="M292.8 97.3 l-5.8 -0.4 0 -2.1 0 -2 3.5 0.6 3.5 0.7 0 -1.3 0 -1.3 3 -2 3 -2 0 -1.1 c0 -0.5 -1.2 -2.2 -2.7 -3.6 l-2.8 -2.6 -6 -1.1 -6 -1 -26 -0.6 c-36.3 -0.7 -61 -1.4 -97.5 -2.6 -17.3 -0.5 -48.8 -1.2 -70 -1.5 l-38.5 -0.5 -2.5 -0.6 c-1.4 -0.4 -2.8 -0.6 -3.2 -0.5 l-0.8 0.2 0 -1.7 0 -1.8 -1 1.5 -1 1.5 0.4 -3.9 0.5 -3.8 4.3 -3.6 c4.9 -4.2 28 -26.5 34.2 -33.1 2.2 -2.4 8.1 -8.3 13.1 -13 4.9 -4.7 10 -9.8 11.4 -11.4 l2.5 -2.7 120.8 0 120.8 0 0 21 0 21 -1 0 c-1.1 0 -7.5 6.8 -10.2 10.9 -1 1.4 -4.3 6 -7.3 10.1 -3 4.1 -6.4 9.3 -7.4 11.5 l-2 4 0.9 3.8 c0.4 2.1 1.4 4.4 2 5.2 l1.2 1.5 -3.5 0 -3.5 0 -1.2 1.5 c-0.7 0.8 -1.6 1.5 -2.1 1.5 -0.4 0 -2.8 1.4 -5.2 3 l-4.5 3 -3.8 -0.2 c-2.2 -0.1 -6.5 -0.3 -9.6 -0.5z"/>
 </g>
 <g fill="#81bd32">
  <path d="M345 68.4 c0 -0.9 4.1 -7.4 4.6 -7.4 0.2 0 0.4 1.8 0.4 4 l0 4 -2.5 0 -2.5 0 0 -0.6z"/>
 </g>
 <g fill="#8e9d58">
 </g>
 <g fill="#8deb0c">
  <path d="M321 309.4 l0 -3.7 2.1 -1.8 2.2 -1.9 -0.7 -9.7 c-0.3 -5.4 -1.1 -12.3 -1.6 -15.3 -0.5 -3 -1.7 -12 -2.5 -20 -1.6 -14.5 -2.7 -23.4 -4.6 -38.5 -0.6 -4.4 -1.2 -10 -1.4 -12.5 -0.3 -2.5 -0.7 -5.6 -1 -6.8 -0.3 -1.3 -0.8 -5.2 -1.1 -8.5 -0.3 -3.4 -0.7 -7.8 -1 -9.7 -0.3 -1.9 -0.5 -5.4 -0.4 -7.7 l0.1 -4.1 -1.1 -0.7 -1.1 -0.7 0.2 -3.1 c0.2 -3.7 -2 -28.5 -2.6 -30.5 -0.3 -0.7 -0.7 -4.8 -1 -9 -1.1 -15.5 -2.1 -19.7 -4.9 -21.4 l-1.1 -0.6 0.3 -4.5 0.4 -4.6 1.4 0.6 1.3 0.5 4.6 -3.1 c2.5 -1.7 4.9 -3.1 5.3 -3.1 0.4 -0.1 2.3 -1.4 4.2 -3 1.9 -1.7 4 -3 4.7 -3 l1.3 0 0 1.3 0 1.4 2 1.8 2 1.9 1.2 -1.2 c0.7 -0.7 2 -1.2 2.9 -1.2 l1.7 0 0.6 -2.6 c0.4 -1.5 1.2 -3.2 1.9 -3.9 0.7 -0.7 3.8 -4.7 7 -8.9 3.2 -4.2 6.2 -7.6 6.8 -7.6 l0.9 0 0 26.5 0 26.5 -4 0 -3.9 0 -2.5 1.1 -2.4 1.1 -0.6 2.9 -0.5 2.9 -2.8 0 -2.8 0 -2.9 1.5 -2.9 1.6 -1 -1 -1 -1 -2.8 2.2 -2.9 2.1 0 3.5 c0 4 2.6 16.5 4.2 19.7 l1 2.2 2.5 1.1 2.4 1.1 1.9 -1 2 -1.1 0.6 -2.5 0.6 -2.5 1.9 0.6 1.9 0.6 0 -1.1 0 -1.2 1.5 0.6 1.6 0.6 1 -2.7 1 -2.7 -1 -2.4 c-0.6 -1.2 -1.1 -3.2 -1.1 -4.3 l0 -2 1.7 1.6 c0.9 0.9 2.7 2.1 3.9 2.6 l2.4 0.8 1.5 -0.5 1.5 -0.6 0 10.3 0 10.4 -3.3 1.5 -3.2 1.5 -1.1 2.3 c-0.7 1.3 -1.7 2.9 -2.3 3.5 l-1.1 1.1 0 2 0 2 -3.5 -3.4 -3.4 -3.3 -2.6 1.7 -2.6 1.7 -1.9 3.2 -2 3.1 1 1 c0.6 0.6 1 1.8 1 2.8 l0 1.8 1.5 0 1.4 0 1.1 4.1 1.1 4 -0.5 6.5 -0.4 6.5 1.6 0.5 c1 0.3 2.5 1 3.5 1.5 l1.8 1 1.8 -1.3 c3.6 -2.6 7.7 -6.4 9.9 -9.2 l2.2 -2.9 0 47 0 47 -7.1 7.2 c-3.8 3.9 -7.3 7.1 -7.7 7.1 -0.9 0 -4.2 5.8 -4.2 7.5 l0 1.3 -1.6 0.6 c-0.9 0.3 -3.1 0.6 -5 0.6 l-3.4 0 0 -3.6z"/>
 </g>
 <g fill="#9ae334">
  <path d="M317.6 313.9 c-0.3 -1.7 -0.6 -4.3 -0.6 -5.6 l0 -2.5 1.3 0.5 1.4 0.5 2.6 -2.3 2.7 -2.2 -0.1 -5.9 c0 -3.3 -0.5 -8.6 -0.9 -11.9 -0.5 -3.3 -1.4 -10.3 -1.9 -15.5 -1.7 -15.9 -2.2 -19.4 -2.6 -22 -0.5 -2.5 -1.9 -14.7 -3 -26.5 -0.4 -3.3 -1 -7.6 -1.4 -9.5 -0.5 -1.9 -0.9 -5.3 -1.1 -7.5 -0.2 -4.4 -0.6 -8 -0.9 -8 -0.1 0 -0.4 -2.9 -0.7 -6.5 -0.3 -3.6 -0.7 -7.6 -1 -9 -0.3 -1.4 -0.5 -4.4 -0.4 -6.7 l0.1 -4.1 -1 -0.7 -1 -0.6 0.1 -4.4 0.1 -4.5 0.8 0.6 0.9 0.5 0 2.6 c0 1.4 0.5 5.3 1 8.7 1 6.2 4 32 6.5 56.6 l1.4 13.5 1.1 3.5 1.1 3.5 1.5 15.5 c0.8 8.5 1.8 20 2.3 25.5 l0.9 10 -1.4 2.9 c-0.8 1.6 -1.4 4 -1.4 5.3 l0 2.3 0.9 0 c0.5 0 1.6 -0.7 2.5 -1.5 0.8 -0.8 1.9 -1.5 2.5 -1.5 l1.1 0 0 2.4 0 2.3 -3.8 2.7 -3.8 2.6 -2.6 0 -2.5 0 -0.7 -3.1z"/>
  <path d="M330.1 306.1 l-1.5 -1 1.2 -2.5 1.2 -2.6 1.3 0 1.4 0 5.1 -5.1 5.2 -5.1 1.6 0.6 1.5 0.6 -0.6 -2 -0.6 -2 1.5 0 1.6 0 0 1.3 0 1.2 -8.5 8.8 c-4.6 4.8 -8.6 8.7 -8.7 8.7 -0.2 0 -0.9 -0.4 -1.7 -0.9z"/>
  <path d="M329.3 207.3 c-0.7 -0.2 -1.3 -0.9 -1.3 -1.4 l0 -0.9 2.8 0.6 c1.5 0.4 3.1 1.1 3.7 1.5 l0.9 0.9 -2.4 -0.1 c-1.4 0 -3.1 -0.3 -3.7 -0.6z"/>
  <path d="M338.4 206.5 c1.1 -0.8 2.5 -1.5 3 -1.5 l1.1 0.1 -1.9 1.4 c-1.1 0.8 -2.5 1.5 -3 1.5 l-1.1 -0.1 1.9 -1.4z"/>
  <path d="M326.2 197.5 l0.6 -6.5 -1.9 -3.4 -1.8 -3.4 2.5 0.2 2.4 0.1 1.6 5.4 1.6 5.5 -1.3 4.3 -1.2 4.3 -1.5 0 -1.5 0 0.5 -6.5z"/>
  <path d="M346.1 199.8 l2.9 -3.2 0 -1.7 0 -1.7 -1.2 -0.5 -1.3 -0.5 1.7 -0.1 1.7 -0.1 -0.1 4.5 -0.1 4.5 -1.8 0 -1.8 0 -0.6 1 c-0.3 0.6 -1 1 -1.5 1 l-0.9 0 3 -3.2z"/>
  <path d="M322.4 181.6 l-1.9 -1.4 0.6 -0.6 0.6 -0.6 1.7 0.6 1.6 0.6 0 1.4 c0 1.7 -0.2 1.7 -2.6 0z"/>
  <path d="M339 178.7 l0 -3.3 -3.1 -3.2 c-1.7 -1.8 -3.5 -3.2 -4 -3.2 -0.5 0 -2.7 1.8 -4.9 4 l-4 4 -1.5 0 -1.5 0 0 -0.8 c0 -0.4 1.4 -2.7 3.2 -5.1 l3.1 -4.3 5.4 0.4 5.4 0.5 2.1 -3.1 c1.2 -1.7 2.8 -3.7 3.6 -4.3 l1.6 -1.3 2.8 0 2.8 0 0 1.3 0 1.3 -3.5 1.3 -3.5 1.2 -1.1 4.2 -1.1 4.1 0.6 4.8 0.7 4.8 -1.6 0 -1.5 0 0 -3.3z"/>
  <path d="M320.7 156.5 c-2.6 -2.5 -3.5 -4.5 -1.9 -4.5 0.4 0 2 1.4 3.6 3.1 l2.9 3.1 1.9 -0.5 1.8 -0.5 0 0.9 0 0.9 -2.8 0 -2.7 0 -2.8 -2.5z"/>
  <path d="M308.8 156 c-0.4 -1.4 -0.7 -4.7 -0.7 -7.5 l0.1 -5 0.9 4.5 c0.5 2.5 0.8 5.9 0.7 7.5 l-0.3 3 -0.7 -2.5z"/>
  <path d="M331.7 153 c0.5 -2 1.5 -2.5 2.6 -1.3 l0.7 0.6 -1.1 1.4 c-0.6 0.7 -1.5 1.3 -1.9 1.3 l-0.8 0 0.5 -2z"/>
  <path d="M336 151 l0 -1 1.1 0 1 0 -0.6 1 c-0.3 0.6 -0.8 1 -1.1 1 -0.2 0 -0.4 -0.4 -0.4 -1z"/>
  <path d="M315.7 146.3 l-1.6 -4.8 -0.2 -4.5 c-0.1 -2.5 -0.2 -5.7 -0.1 -7.3 l0.2 -2.7 2.5 -1 2.5 -1 0 -0.8 0 -0.9 7.1 -0.7 7.1 -0.7 0.9 -2.8 1 -2.8 2.5 -1.2 2.5 -1.1 4.9 0 5 0 0 2.1 0 2.1 -3.8 -0.7 -3.8 -0.6 -2.6 1 -2.6 1 -0.6 3.6 -0.7 3.6 1.5 5.3 1.6 5.2 1.7 2 c1 1.1 2.9 2.5 4.3 3.1 l2.5 1.2 -2.3 0 -2.3 0.1 -0.6 1.6 -0.6 1.7 -2.8 -5.9 c-1.6 -3.2 -2.9 -6.7 -2.9 -7.6 l0 -1.7 -2.6 -2.5 -2.7 -2.4 -3 0.9 -3.1 0.9 -0.7 -1.1 -0.7 -1.1 -3.1 2.3 -3.1 2.3 0 3.5 c0 2 0.4 5.2 0.9 7.1 0.5 1.9 1.2 5 1.5 6.8 l0.6 3.2 -1.3 0 -1.3 0 -1.7 -4.7z"/>
  <path d="M340 148 l0 -1.3 0.7 0.6 0.6 0.7 -0.6 0.7 -0.7 0.6 0 -1.3z"/>
  <path d="M306.6 136 c-0.5 -4.1 -1 -9.3 -1.2 -11.5 -0.2 -2.2 -0.5 -6.5 -0.8 -9.5 -0.3 -3.1 -0.9 -6.7 -1.5 -8.1 l-0.9 -2.6 -1.7 -0.7 c-0.9 -0.3 -2.6 -0.6 -3.7 -0.6 l-2.1 0 0.6 -4.1 0.5 -4.1 1 -1 0.9 -0.9 2.6 1.2 2.5 1.1 2.3 -1.6 c1.3 -0.9 2.8 -1.6 3.4 -1.6 l1 0 -3.2 2.1 -3.3 2.1 0 2.3 c0 1.2 0.6 3.8 1.4 5.6 l1.4 3.4 1.2 16.7 c0.7 9.1 1 17.2 0.8 18 l-0.5 1.3 -0.7 -7.5z"/>
  <path d="M347 110.5 l0 -1.5 1.5 0 1.5 0 0 1.5 0 1.5 -1.5 0 -1.5 0 0 -1.5z"/>
  <path d="M310 90.5 c0 -0.3 0.2 -0.5 0.5 -0.5 0.3 0 0.5 0.2 0.5 0.5 0 0.3 -0.2 0.5 -0.5 0.5 -0.3 0 -0.5 -0.2 -0.5 -0.5z"/>
  <path d="M312 89.5 c0 -0.3 0.2 -0.5 0.5 -0.5 0.3 0 0.5 0.2 0.5 0.5 0 0.3 -0.2 0.5 -0.5 0.5 -0.3 0 -0.5 -0.2 -0.5 -0.5z"/>
  <path d="M314.5 88 c0.3 -0.5 0.8 -1 1.1 -1 0.3 0 0.2 0.5 -0.1 1 -0.3 0.6 -0.8 1 -1.1 1 -0.3 0 -0.2 -0.4 0.1 -1z"/>
  <path d="M328.7 87.9 l1.3 -1.3 0.5 0.6 0.6 0.6 -1.8 0.6 -1.8 0.7 1.2 -1.2z"/>
  <path d="M320.2 83 c1.2 -1.6 2.2 -3 2.3 -3 0.1 0 0.2 1.4 0.3 3 l0.1 3 -2.5 0 -2.5 0 2.3 -3z"/>
  <path d="M334 82.6 l0 -1.6 1 0 c0.6 0 1 0.4 1 0.9 0 0.6 -0.4 1.3 -1 1.6 l-1 0.6 0 -1.5z"/>
  <path d="M337.6 77.9 c1.9 -3.2 10.8 -13.9 11.6 -13.9 0.4 0 0.8 0.6 0.8 1.3 l0 1.2 -2.2 1 -2.3 1 -3.3 5 c-1.9 2.8 -3.8 5.2 -4.4 5.4 l-1.1 0.4 0.9 -1.4z"/>
 </g>
 <g fill="#b4ca76">
  <path d="M319 314.6 l0 -3.5 1 -0.6 1 -0.6 0 2.1 0 2 2.5 -0.6 2.5 -0.6 0 1.2 0 1.3 -1.7 1.3 c-1 0.7 -2.6 1.4 -3.5 1.4 l-1.8 0 0 -3.4z"/>
  <path d="M348 193 c-0.8 -0.5 -1.2 -1.1 -0.9 -1.4 0.2 -0.3 1.1 -0.1 1.9 0.4 0.8 0.5 1.2 1.1 0.9 1.4 -0.2 0.3 -1.1 0.1 -1.9 -0.4z"/>
  <path d="M340.9 189.8 c-0.3 -1.1 -0.9 -4.8 -1.1 -7.5 l-0.3 -3.2 1 -0.2 1 -0.2 1 3.4 c0.6 1.9 1.4 4 1.9 4.8 l0.9 1.3 -1.4 0.9 c-1.4 0.8 -2.8 1.2 -3 0.7z"/>
  <path d="M339 176 l0 -1.3 0.7 0.6 0.6 0.7 -0.6 0.7 -0.7 0.6 0 -1.3z"/>
  <path d="M339 138.5 c0 -0.3 0.2 -0.5 0.5 -0.5 0.3 0 0.5 0.2 0.5 0.5 0 0.3 -0.2 0.5 -0.5 0.5 -0.3 0 -0.5 -0.2 -0.5 -0.5z"/>
  <path d="M337.3 136.3 l-1.3 -0.5 0 -2.8 0 -2.8 -1.5 -1.2 c-0.8 -0.7 -1.5 -1.6 -1.5 -2.1 l0 -0.9 1.4 0 1.4 0 1.6 5.2 c1.7 5.7 1.7 5.7 -0.1 5.1z"/>
 </g>
 <g fill="#e6fa82">
  <path d="M92.3 330.2 l-2.3 -0.3 -0.6 -2.7 c-0.3 -1.5 -0.8 -3.4 -1 -4.2 -0.2 -0.8 0 -2.8 0.5 -4.5 l0.8 -3 -0.8 -1.5 c-1 -2 -2.9 -11 -7.9 -36.5 -6.6 -33.8 -12.9 -63.4 -15.6 -74 -0.9 -3.2 -2.2 -10 -3 -14.9 l-1.5 -9 -1 -1.3 -1.1 -1.3 0.5 -1.4 0.5 -1.4 -1 -4.3 c-2.5 -11.1 -7.9 -43.9 -9.4 -56.9 -0.2 -1.9 -0.6 -5.9 -1 -8.9 l-0.6 -5.3 -2.9 -1.1 -2.9 -1.1 0 -5.1 0 -5 28.7 0.3 c35.6 0.3 74.9 1.1 82.8 1.6 3.3 0.3 19.1 0.8 35 1.1 16 0.4 29.2 0.9 29.5 1 0.3 0.2 15.1 0.6 33 1 l32.5 0.7 4.3 0.9 4.4 1 3.1 -0.6 3.2 -0.5 1.4 0.9 1.5 0.9 -1.3 1.6 -1.3 1.5 0.7 1.1 0.6 1 -1.1 0 -1.1 0 0.6 1.1 0.7 1 -2.1 0.6 -2.2 0.6 -1.3 3.2 -1.4 3.2 0.9 5.4 c0.5 3 1.4 10.6 2 16.9 2 20.2 2.9 27.8 3.4 31.1 0.3 1.5 0.7 6.4 1 11 0.3 4.6 0.8 9.5 1.1 10.9 0.7 2.7 1 5.2 1.8 14 0.6 6.8 4.4 38.2 5.1 43 0.4 1.9 0.8 5.3 1 7.5 0.2 2.2 1 9.6 1.8 16.5 0.9 6.9 1.8 15.7 2.2 19.5 0.7 7.4 1.2 11.4 2 15.5 l0.6 2.6 2.4 1.8 2.5 1.8 0.6 3.4 c0.3 1.9 1 3.7 1.5 4 0.5 0.3 0.9 1.2 0.9 2 l0 1.4 -2.4 0 -2.4 0 -1.1 1.4 -1.2 1.4 -3.7 0.8 c-2 0.4 -4.1 0.7 -4.5 0.6 -0.4 -0.1 -1.6 0.2 -2.5 0.7 -0.9 0.4 -3.4 1.1 -5.4 1.5 l-3.8 0.7 0 -1.2 c0 -0.6 0.7 -1.7 1.6 -2.4 l1.6 -1.1 -1.3 -2.2 -1.3 -2.1 -2.6 -0.3 c-2.7 -0.3 -14.2 1.2 -32 4.2 -6.3 1.1 -14.4 2.3 -17.9 2.6 -3.6 0.3 -7.2 0.9 -8.2 1.4 -0.9 0.5 -1.8 0.7 -2.1 0.5 -0.3 -0.4 -5.3 0 -25.3 2 -7.2 0.7 -72.1 3.8 -78 3.8 -0.5 0 -6.8 -0.4 -14 -0.7 l-13 -0.7 -4.5 0.8 c-2.5 0.5 -5.5 0.7 -6.7 0.5z m74.2 -97.9 l1.4 -2 -1.1 -3.9 c-0.5 -2.1 -2.3 -6.4 -3.8 -9.4 -5.2 -10.1 -11.8 -26.7 -13.8 -34.5 -0.6 -2.2 -1.5 -5.9 -2.1 -8.1 l-1.1 -4.2 0.5 -1.3 0.5 -1.4 -1.9 -2.4 -1.8 -2.4 -3.9 0.9 -3.9 1 -0.3 2.9 -0.4 3 1.7 6 c3.4 11.9 7.9 24.7 12 34 0.7 1.7 2.9 7 4.9 12 l3.7 8.9 1.7 1.7 1.7 1.7 2.3 -0.3 2.3 -0.2 1.4 -2z m99.6 -11.5 l0.7 -2.8 -1.8 -7.2 c-3.7 -14.3 -8.2 -35.5 -10.6 -49.3 l-2.3 -14 -2.1 -1.7 -2.1 -1.7 -2.4 1.1 -2.3 1 -0.6 2.1 -0.5 2 1 8.6 c0.9 8.9 1.9 14 4.6 25.1 0.8 3.6 2.1 9.2 2.8 12.4 l1.3 5.9 -0.5 1.4 -0.5 1.3 1 1.3 c0.5 0.6 0.9 2 0.9 2.9 0 1 1.2 4.7 2.8 8.3 l2.8 6.6 3.5 -0.3 3.6 -0.3 0.7 -2.7z"/>
 </g>
 <g fill="#e5f2a2">
  <path d="M90.2 329.2 c-0.6 -2 -1.4 -4.6 -1.7 -5.8 l-0.5 -2.1 0.9 -2.4 1 -2.4 0 3.1 0.1 3.2 1.8 2.2 1.7 2.1 23 -0.1 c12.7 0 28.8 -0.3 35.9 -0.6 l12.9 -0.5 1.8 0.6 c1.1 0.4 1.9 1 1.9 1.5 l0 0.9 -9.7 0.4 c-5.4 0.3 -10.4 0.6 -11 0.6 -0.7 0 -2.3 0 -3.5 0 -9.4 -0.1 -24.4 -0.2 -35.3 -0.3 l-13.1 -0.1 -2.6 1.7 -2.5 1.7 -1.1 -3.7z"/>
  <path d="M172 328.5 c0 -0.3 0.2 -0.5 0.5 -0.5 0.3 0 0.5 0.2 0.5 0.5 0 0.3 -0.2 0.5 -0.5 0.5 -0.3 0 -0.5 -0.2 -0.5 -0.5z"/>
  <path d="M175 327.2 l0 -1 6.3 -0.6 c3.4 -0.3 9.9 -0.8 14.4 -1.1 l8.2 -0.5 0.6 1 c0.4 0.6 0.5 1.3 0.3 1.6 -0.3 0.2 -7 0.7 -15.1 1 l-14.7 0.7 0 -1.1z"/>
  <path d="M207.3 325.7 l-0.5 -0.9 0.8 -0.8 0.9 -0.8 13.5 -1.1 c7.4 -0.6 17.8 -1.6 23 -2.2 l9.5 -1 1.7 0.5 1.8 0.4 0 -0.8 0 -0.8 4.8 -1.6 4.7 -1.5 10.8 -0.7 10.7 -0.6 0 1.1 0 1.1 -1.2 0.1 c-0.7 0.1 -2.2 0.3 -3.3 0.4 -1.1 0.2 -5.6 0.8 -10 1.5 -4.4 0.6 -11.5 1.7 -15.8 2.5 -4.3 0.8 -10.8 1.7 -14.5 2.1 l-6.7 0.5 -1.2 1.1 -1.2 1 -0.9 -0.6 -0.8 -0.5 -12.8 1.3 -12.7 1.2 -0.6 -0.9z"/>
  <path d="M296 323.5 l0 -1.5 1.5 0 1.5 0 0 -1.3 c0 -0.7 -0.9 -2.3 -1.9 -3.4 l-2 -2.1 0.6 -0.6 0.6 -0.6 2.8 3.2 2.9 3.1 5.4 -1.2 5.4 -1.2 1.2 -1.5 1.2 -1.4 3.9 0 3.9 0 0 1.3 0 1.2 -4.8 1.8 c-2.6 1 -5.5 2.3 -6.5 2.8 l-1.8 1 -2 -0.6 -2 -0.7 -1.2 1 c-0.7 0.5 -2.9 1.2 -4.9 1.6 l-3.8 0.7 0 -1.6z"/>
  <path d="M292 315.5 c0 -0.3 0.2 -0.5 0.5 -0.5 0.3 0 0.5 0.2 0.5 0.5 0 0.3 -0.2 0.5 -0.5 0.5 -0.3 0 -0.5 -0.2 -0.5 -0.5z"/>
  <path d="M290 314 l0 -1.3 0.7 0.6 0.6 0.7 -0.6 0.7 -0.7 0.6 0 -1.3z"/>
  <path d="M88 313 l0 -1.3 0.7 0.6 0.6 0.7 -0.6 0.7 -0.7 0.6 0 -1.3z"/>
  <path d="M87.1 306.8 c-0.6 -2.4 -1.5 -6.2 -2 -8.5 l-0.9 -4.3 0.9 0 c0.5 0 0.9 0.2 0.9 0.5 0 0.3 0.7 4 1.6 8.1 1.7 8.3 1.4 11.1 -0.5 4.2z"/>
  <path d="M318 306.5 c0 -0.3 0.2 -0.5 0.5 -0.5 0.3 0 0.5 0.2 0.5 0.5 0 0.3 -0.2 0.5 -0.5 0.5 -0.3 0 -0.5 -0.2 -0.5 -0.5z"/>
  <path d="M314.5 304.9 c-1.1 -1.7 0.1 -2.1 1.5 -0.4 l1.2 1.5 -1 0 c-0.6 0 -1.4 -0.5 -1.7 -1.1z"/>
  <path d="M314 301.5 c0 -0.3 0.2 -0.5 0.5 -0.5 0.3 0 0.5 0.2 0.5 0.5 0 0.3 -0.2 0.5 -0.5 0.5 -0.3 0 -0.5 -0.2 -0.5 -0.5z"/>
  <path d="M311 299.1 c0 -0.5 0.7 -1.1 1.5 -1.5 l1.5 -0.5 0 1.4 0 1.5 -1.5 0 -1.5 0 0 -0.9z"/>
  <path d="M313 294.5 c0 -0.3 0.2 -0.5 0.5 -0.5 0.3 0 0.5 0.2 0.5 0.5 0 0.3 -0.2 0.5 -0.5 0.5 -0.3 0 -0.5 -0.2 -0.5 -0.5z"/>
  <path d="M310 289.4 l0 -3.6 1.3 0.4 1.2 0.5 0.3 3.1 0.3 3.2 -1.5 0 -1.6 0 0 -3.6z"/>
  <path d="M81.7 281.2 c-0.9 -4.2 -1.7 -8.4 -1.6 -9.2 l0 -1.5 1.4 4.3 c1.4 4.7 3 14.2 2.3 14.2 -0.3 0 -1.2 -3.5 -2.1 -7.8z"/>
  <path d="M309 281 l0 -3 1.3 0 1.2 -0.1 -1.7 -1 -1.8 -1 0 -3.3 0 -3.4 1.4 -0.5 1.3 -0.5 0.7 5.1 c0.3 2.9 0.6 6.4 0.6 8 l0 2.7 -1.5 0 -1.5 0 0 -3z"/>
  <path d="M78.1 262.9 c-0.7 -3.8 -1.1 -7.2 -0.9 -7.5 0.3 -0.2 1 2.8 1.7 6.7 0.7 3.8 1.1 7.2 0.9 7.5 -0.3 0.2 -1 -2.8 -1.7 -6.7z"/>
  <path d="M307 262.9 l0 -2 1.3 -1.4 1.4 -1.3 0.1 3.4 0.1 3.4 -1.4 0 -1.5 0 0 -2.1z"/>
  <path d="M76 253.5 c0 -0.3 0.2 -0.5 0.5 -0.5 0.3 0 0.5 0.2 0.5 0.5 0 0.3 -0.2 0.5 -0.5 0.5 -0.3 0 -0.5 -0.2 -0.5 -0.5z"/>
  <path d="M75 249.5 c0 -0.3 0.2 -0.5 0.5 -0.5 0.3 0 0.5 0.2 0.5 0.5 0 0.3 -0.2 0.5 -0.5 0.5 -0.3 0 -0.5 -0.2 -0.5 -0.5z"/>
  <path d="M75.1 246.4 l0.1 -1.9 0.5 1.3 0.5 1.3 -0.6 0.6 -0.6 0.6 0.1 -1.9z"/>
  <path d="M72.6 236 l-1.9 -8 0.5 -0.6 0.6 -0.6 1.7 7.6 c0.9 4.1 1.5 8 1.3 8.6 l-0.3 1.1 -1.9 -8.1z"/>
  <path d="M304 236.9 l0 -2.1 1.3 0.4 1.2 0.5 0.3 1.6 0.3 1.7 -1.5 0 -1.6 0 0 -2.1z"/>
  <path d="M162 235 l0 -1 1.1 0 1 0 -0.6 1 c-0.3 0.6 -0.8 1 -1.1 1 -0.2 0 -0.4 -0.4 -0.4 -1z"/>
  <path d="M156.2 233.3 c-1.3 -0.5 -4.2 -5.5 -4.2 -7.3 l0 -1 1 0 1 0 2 3.9 1.9 3.9 1.3 0.5 1.3 0.5 -1.5 0 c-0.8 0 -2.1 -0.2 -2.8 -0.5z"/>
  <path d="M166 233 l0 -1.3 0.7 0.6 0.6 0.7 -0.6 0.7 -0.7 0.6 0 -1.3z"/>
  <path d="M303 229 l0 -2 1.5 0 1.5 0 0 2 0 2 -1.5 0 -1.5 0 0 -2z"/>
  <path d="M167 228.5 c0 -0.3 0.2 -0.5 0.5 -0.5 0.3 0 0.5 0.2 0.5 0.5 0 0.3 -0.2 0.5 -0.5 0.5 -0.3 0 -0.5 -0.2 -0.5 -0.5z"/>
  <path d="M69.5 222.3 c-0.3 -2.1 -0.9 -4.9 -1.1 -6.3 l-0.5 -2.5 0.9 1.5 c1.1 1.7 2.7 11 1.9 11 -0.3 0 -0.8 -1.7 -1.2 -3.7z"/>
  <path d="M166.5 224.5 c-0.5 -1.1 -1 -2.4 -1.3 -3 -0.3 -0.5 0.3 -0.3 1.3 0.7 l1.7 1.6 -0.5 1.4 -0.5 1.3 -0.7 -2z"/>
  <path d="M254.5 222 l-0.6 -1 1.3 0 1.3 -0.1 -1.9 -1.4 -2 -1.5 1.7 0 1.7 0 0 1 c0 0.6 0 1.3 -0.1 1.6 0 0.4 0.5 1.1 1.3 1.5 l1.3 0.9 -1.7 0 -1.7 0 -0.6 -1z"/>
  <path d="M150 221 l0 -1 1.5 0 1.5 0 0 1 0 1 -1.5 0 -1.5 0 0 -1z"/>
  <path d="M266.1 220.4 l0.1 -1.9 0.5 1.3 0.5 1.3 -0.6 0.6 -0.6 0.6 0.1 -1.9z"/>
  <path d="M163.6 218.3 l-0.7 -1.8 1.2 1.2 1.3 1.3 -0.6 0.5 -0.6 0.6 -0.6 -1.8z"/>
  <path d="M303 219 l-1.4 -0.9 0.7 -0.7 0.7 -0.8 1.2 1.2 c1.5 1.5 0.7 2.4 -1.2 1.2z"/>
  <path d="M149.5 218 c0.3 -0.5 0.8 -1 1.1 -1 0.2 0 0.4 0.5 0.4 1 l0 1 -1.1 0 -1 0 0.6 -1z"/>
  <path d="M251 215.1 c-0.5 -1.1 -1 -2.7 -1 -3.5 l0 -1.6 1.4 0 1.4 0 0.5 1.8 c0.2 0.9 0.8 2.5 1.2 3.5 l0.7 1.7 -1.6 0 -1.5 0 -1.1 -1.9z"/>
  <path d="M147.8 215.3 l1.3 -0.5 -1.8 -1.3 -1.8 -1.3 0.7 -0.7 0.7 -0.7 1.6 0.5 1.5 0.6 0 2.1 0 2 -1.7 -0.1 -1.8 -0.1 1.3 -0.5z"/>
  <path d="M161.1 213.4 l-1.2 -2.9 1.6 1.7 1.7 1.6 -0.4 1.2 -0.4 1.2 -1.3 -2.8z"/>
  <path d="M265.2 212.2 c-1.6 -5.2 -4.3 -19.5 -3.8 -20 0.2 -0.2 0.9 2.3 1.6 5.5 0.6 3.2 1.5 7.2 2 8.8 1.3 4.6 2.2 9.5 1.7 9.5 -0.2 0 -0.9 -1.7 -1.5 -3.8z"/>
  <path d="M301 212.9 l0 -2.1 1.3 0.4 1.2 0.5 0.3 1.6 0.3 1.7 -1.5 0 -1.6 0 0 -2.1z"/>
  <path d="M147 209.5 c0 -0.3 0.2 -0.5 0.5 -0.5 0.3 0 0.5 0.2 0.5 0.5 0 0.3 -0.2 0.5 -0.5 0.5 -0.3 0 -0.5 -0.2 -0.5 -0.5z"/>
  <path d="M303 209.5 c0 -0.3 0.2 -0.5 0.5 -0.5 0.3 0 0.5 0.2 0.5 0.5 0 0.3 -0.2 0.5 -0.5 0.5 -0.3 0 -0.5 -0.2 -0.5 -0.5z"/>
  <path d="M65.7 205.1 c-0.3 -1.6 -0.9 -4.2 -1.3 -5.7 l-0.7 -2.9 1.3 1.2 1.2 1.1 0.8 4.1 0.7 4.1 -0.7 0.5 -0.8 0.5 -0.5 -2.9z"/>
  <path d="M249 207 l0 -1 1.5 0 1.5 0 0 1 0 1 -1.5 0 -1.5 0 0 -1z"/>
  <path d="M157.1 205 c-0.1 -0.8 -1.7 -5.3 -3.6 -10 -1.9 -4.6 -3.5 -9.3 -3.5 -10.4 l0 -1.9 0.6 0.6 c0.3 0.3 2.1 5.2 4 10.8 l3.5 10.2 -0.5 1.1 -0.4 1.1 -0.1 -1.5z"/>
  <path d="M300.8 205.3 l1.3 -0.5 0.6 0.6 0.6 0.6 -1.9 -0.1 -1.9 -0.1 1.3 -0.5z"/>
  <path d="M145 203.5 c0 -0.3 0.2 -0.5 0.5 -0.5 0.3 0 0.5 0.2 0.5 0.5 0 0.3 -0.2 0.5 -0.5 0.5 -0.3 0 -0.5 -0.2 -0.5 -0.5z"/>
  <path d="M300 203 c0 -0.5 0.4 -1 0.9 -1 0.6 0 1.3 0.5 1.6 1 l0.6 1 -1.5 0 -1.6 0 0 -1z"/>
  <path d="M249.9 202.3 l-1.7 -0.4 -0.7 -4.7 c-0.3 -2.6 -0.8 -5.5 -1.1 -6.4 l-0.5 -1.8 1.5 0 1.6 0 0.5 2.3 c1.4 6.2 2.4 11.2 2.2 11.2 -0.1 0.1 -0.9 0 -1.8 -0.2z"/>
  <path d="M144 201.5 c0 -0.3 0.2 -0.5 0.5 -0.5 0.3 0 0.5 0.2 0.5 0.5 0 0.3 -0.2 0.5 -0.5 0.5 -0.3 0 -0.5 -0.2 -0.5 -0.5z"/>
  <path d="M140.6 198.4 c-0.8 -2.2 -0.8 -2.4 0.8 -2.4 l1.4 0 0.6 1.6 c0.8 2.2 0.8 2.4 -0.8 2.4 l-1.4 0 -0.6 -1.6z"/>
  <path d="M299 196 l0 -3 1 0 1.1 0 0.8 2.3 c1 2.6 0.6 3.7 -1.5 3.7 l-1.4 0 0 -3z"/>
  <path d="M139 194 l0 -1 1.5 0 1.5 0 0 1 0 1 -1.5 0 -1.5 0 0 -1z"/>
  <path d="M299.8 191.2 l-1.8 -0.3 0 -2.5 0 -2.4 1 0 1 0 1.1 2.6 c1.1 3.1 1 3.2 -1.3 2.6z"/>
  <path d="M138.8 190.3 l1.3 -0.5 0.6 0.6 0.6 0.6 -1.9 -0.1 -1.9 -0.1 1.3 -0.5z"/>
  <path d="M62.2 186.5 l0 -3 0.5 1.8 c0.2 0.9 0.2 2.3 0 3 l-0.5 1.2 0 -3z"/>
  <path d="M137.8 187.3 l1.3 -0.5 0.6 0.6 0.6 0.6 -1.9 -0.1 -1.9 -0.1 1.3 -0.5z"/>
  <path d="M245 186 c0 -0.5 0.4 -1 0.9 -1 0.6 0 1.3 0.5 1.6 1 l0.6 1 -1.5 0 -1.6 0 0 -1z"/>
  <path d="M137 185 l1.5 -1 -1.7 0 -1.8 0 0 -1.5 0 -1.5 1.5 0 1.5 0 0 0.9 c0 0.5 0.3 1.6 0.6 2.5 l0.6 1.6 -1.8 0 -1.9 0 1.5 -1z"/>
  <path d="M259.1 184.4 l0.1 -1.9 0.5 1.3 0.5 1.3 -0.6 0.6 -0.6 0.6 0.1 -1.9z"/>
  <path d="M244 182.5 l0 -1.5 1.5 0 1.5 0 0 1.5 0 1.5 -1.5 0 -1.5 0 0 -1.5z"/>
  <path d="M297 179.5 l0 -3.5 1.5 0 1.5 0 0 3.5 0 3.5 -1.5 0 -1.5 0 0 -3.5z"/>
  <path d="M258.2 180 l0 -2.5 0.5 1.3 0.5 1.2 -0.5 1.3 -0.5 1.2 0 -2.5z"/>
  <path d="M243 178 l0 -2 1.5 0 1.5 0 0 2 0 2 -1.5 0 -1.5 0 0 -2z"/>
  <path d="M59.7 178.4 c-0.4 -0.4 -0.7 -1.4 -0.7 -2.3 l0 -1.5 1.1 1.1 1.1 1.1 -0.4 1.2 -0.3 1.1 -0.8 -0.7z"/>
  <path d="M134 177 c0 -0.5 0.4 -1 0.9 -1 0.6 0 1.3 0.5 1.6 1 l0.6 1 -1.5 0 -1.6 0 0 -1z"/>
  <path d="M256.3 171.4 c-1.7 -8.1 -1.5 -10.2 0.3 -3.4 l1.5 5.5 -0.3 2 -0.3 2 -1.2 -6.1z"/>
  <path d="M133 174 l0 -1 1.5 0 1.5 0 0 1 0 1 -1.5 0 -1.5 0 0 -1z"/>
  <path d="M146.6 172.4 l-0.7 -2.7 1 -1 1.1 -1.1 0 3.7 c0 4.4 -0.5 4.7 -1.4 1.1z"/>
  <path d="M243.8 174.2 l-1.8 -0.3 0 -1.4 0 -1.3 1.7 -0.6 1.7 -0.7 -0.7 0.7 -0.7 0.7 1.2 1.4 c1.3 1.6 0.9 2.1 -1.4 1.5z"/>
  <path d="M296 169.5 l0 -3.5 1.4 0 1.4 0 0.4 1.2 c0.3 0.7 0.2 2.3 0 3.5 l-0.4 2.3 -1.4 0 -1.4 0 0 -3.5z"/>
  <path d="M58.2 167.1 c-0.7 -2.9 -1.2 -6 -1.1 -6.9 0 -0.9 0.7 1 1.5 4.2 0.8 3.3 1.3 6.4 1.1 6.9 -0.2 0.6 -0.8 -1.4 -1.5 -4.2z"/>
  <path d="M132 167.5 l0 -2.5 1.5 0 1.5 0 0 2.5 0 2.5 -1.5 0 -1.5 0 0 -2.5z"/>
  <path d="M241 166 l0 -1 1.5 0 1.5 0 0 1 0 1 -1.5 0 -1.5 0 0 -1z"/>
  <path d="M144.5 164 l-0.7 -1.2 -3.4 0.7 -3.4 0.6 0 -1.6 0 -1.5 3.9 0 3.9 0 0.6 1.6 c0.8 2 0.1 3 -0.9 1.4z"/>
  <path d="M243 163.5 c0 -0.3 0.2 -0.5 0.5 -0.5 0.3 0 0.5 0.2 0.5 0.5 0 0.3 -0.2 0.5 -0.5 0.5 -0.3 0 -0.5 -0.2 -0.5 -0.5z"/>
  <path d="M253.6 157.1 c-0.4 -2.9 -0.5 -5.5 -0.2 -5.8 0.6 -0.7 1.9 8.3 1.4 9.9 l-0.5 1.3 -0.7 -5.4z"/>
  <path d="M240 158 l0 -2 1.5 0 1.5 0 0 2 0 2 -1.5 0 -1.5 0 0 -2z"/>
  <path d="M297 159.5 c0 -0.3 0.2 -0.5 0.5 -0.5 0.3 0 0.5 0.2 0.5 0.5 0 0.3 -0.2 0.5 -0.5 0.5 -0.3 0 -0.5 -0.2 -0.5 -0.5z"/>
  <path d="M55.5 152 c-0.4 -2.8 -0.5 -5.3 -0.2 -5.6 0.2 -0.3 0.7 1.9 1.1 4.7 0.4 2.8 0.5 5.3 0.3 5.6 -0.3 0.2 -0.8 -1.9 -1.2 -4.7z"/>
  <path d="M297 155.5 c0 -0.3 0.2 -0.5 0.5 -0.5 0.3 0 0.5 0.2 0.5 0.5 0 0.3 -0.2 0.5 -0.5 0.5 -0.3 0 -0.5 -0.2 -0.5 -0.5z"/>
  <path d="M295.8 153.3 l-1.8 -0.4 0 -1.5 0 -1.4 1.4 0 1.4 0 0.5 2 c0.3 1.1 0.4 1.9 0.4 1.9 -0.1 -0.1 -1 -0.3 -1.9 -0.6z"/>
  <path d="M252 149.5 c0 -0.3 0.2 -0.5 0.5 -0.5 0.3 0 0.5 0.2 0.5 0.5 0 0.3 -0.2 0.5 -0.5 0.5 -0.3 0 -0.5 -0.2 -0.5 -0.5z"/>
  <path d="M249.2 145.3 l-2.2 -1.5 -1.3 1 -1.2 1 -1.2 -1.3 -1.2 -1.3 0.6 -0.6 c0.4 -0.3 2.1 -0.6 3.8 -0.6 l3.3 0 1.2 1.5 c0.6 0.8 1 1.8 0.8 2.4 l-0.3 0.9 -2.3 -1.5z"/>
  <path d="M294.7 145.6 l-1.7 -1.7 0 -2 0 -1.9 1 0 1 0 1.1 2.7 c0.5 1.4 0.8 3 0.6 3.6 l-0.3 1 -1.7 -1.7z"/>
  <path d="M53.1 139.4 c-0.6 -3.2 -0.9 -5.9 -0.7 -6.1 0.2 -0.3 1 2.1 1.6 5.2 0.6 3.1 1 5.9 0.7 6.1 -0.2 0.2 -0.9 -2.1 -1.6 -5.2z"/>
  <path d="M292 134.1 l0 -1.9 1.3 -0.6 1.2 -0.6 -1.2 -0.6 -1.3 -0.6 0 -2.4 0 -2.4 1.5 0 1.5 0 0 5.5 0 5.5 -1.5 0 -1.5 0 0 -1.9z"/>
  <path d="M51.2 125 l0 -3.5 0.5 1.8 c0.2 0.9 0.2 2.5 0 3.5 l-0.5 1.7 0 -3.5z"/>
  <path d="M291 122 l0 -2 1.5 0 1.5 0 0 2 0 2 -1.5 0 -1.5 0 0 -2z"/>
  <path d="M50 119.5 c0 -0.3 0.2 -0.5 0.5 -0.5 0.3 0 0.5 0.2 0.5 0.5 0 0.3 -0.2 0.5 -0.5 0.5 -0.3 0 -0.5 -0.2 -0.5 -0.5z"/>
  <path d="M50.2 116 l0 -2.5 0.5 1.3 0.5 1.2 -0.5 1.3 -0.5 1.2 0 -2.5z"/>
  <path d="M290 114.1 l0 -1.9 1.3 -0.5 1.3 -0.5 0.2 2.4 0.2 2.4 -1.5 0 -1.5 0 0 -1.9z"/>
  <path d="M49.2 107.9 c-0.1 -2.3 -0.5 -4.6 -0.8 -5.2 l-0.7 -1.2 1.1 1 1 1 0.7 3.6 0.7 3.7 -0.9 0.5 -1 0.6 -0.1 -4z"/>
  <path d="M291.5 106 l-0.6 -1 1.5 0 1.6 0 0 1 c0 0.6 -0.4 1 -0.9 1 -0.6 0 -1.3 -0.4 -1.6 -1z"/>
  <path d="M43.8 97.3 l-1.8 -0.4 0 -5.3 0 -5.3 2.6 0.5 2.6 0.5 -1.6 0.9 -1.6 0.9 0 1.8 c0 0.9 0.7 2.6 1.5 3.7 2.4 3.2 2.1 3.7 -1.7 2.7z"/>
  <path d="M284 93 l-1.5 -1.1 3 0.7 c3.7 0.8 4.5 1.4 1.9 1.4 -1 0 -2.6 -0.5 -3.4 -1z"/>
  <path d="M261.8 92.3 c3.4 -0.2 8.8 -0.2 12 0 l5.7 0.3 -12 0 -12 0 6.3 -0.3z"/>
  <path d="M224.8 91.3 c2.9 -0.2 7.4 -0.2 10 0 l4.7 0.3 -10 0 -10 0 5.3 -0.3z"/>
  <path d="M241 91.5 c0 -0.3 0.2 -0.5 0.5 -0.5 0.3 0 0.5 0.2 0.5 0.5 0 0.3 -0.2 0.5 -0.5 0.5 -0.3 0 -0.5 -0.2 -0.5 -0.5z"/>
  <path d="M243.8 91.3 l1.3 -0.5 0.6 0.6 0.6 0.6 -1.9 -0.1 -1.9 -0.1 1.3 -0.5z"/>
  <path d="M181 90 l-1.3 -0.8 12.4 0.5 c6.8 0.3 12.6 0.7 12.9 1 0.2 0.2 -4.8 0.3 -11.2 0.2 l-11.5 -0.1 -1.3 -0.8z"/>
  <path d="M209.3 90.3 c0.9 -0.2 2.5 -0.2 3.5 0 l1.7 0.5 -3.5 0 -3.5 0 1.8 -0.5z"/>
  <path d="M216.3 90.3 l0.7 -0.6 0.7 0.6 0.6 0.7 -1.3 0 -1.3 0 0.6 -0.7z"/>
  <path d="M165.8 89.3 c1.8 -0.2 4.5 -0.2 6 0 l2.7 0.4 -6 0 -6 0 3.3 -0.4z"/>
  <path d="M176.8 89.3 l1.3 -0.5 0.6 0.6 0.6 0.6 -1.9 -0.1 -1.9 -0.1 1.3 -0.5z"/>
  <path d="M131.2 88.5 c0.2 -0.3 4.1 -0.6 8.6 -0.7 l8.2 -0.2 0.6 0.7 0.7 0.7 -9.3 0 c-5.1 0 -9.1 -0.2 -8.8 -0.5z"/>
  <path d="M58.1 87.5 c0.3 -0.2 9.6 -0.5 20.8 -0.5 l20.3 -0.2 0.6 0.6 0.5 0.6 -21.3 0 c-11.7 0 -21.1 -0.2 -20.9 -0.5z"/>
  <path d="M102.3 87.3 c0.9 -0.2 2.5 -0.2 3.5 0 l1.7 0.5 -3.5 0 -3.5 0 1.8 -0.5z"/>
  <path d="M110.8 87.3 l1.2 -0.5 1.3 0.5 1.2 0.5 -2.5 0 -2.5 0 1.3 -0.5z"/>
  <path d="M127 87.5 c0 -0.3 0.2 -0.5 0.5 -0.5 0.3 0 0.5 0.2 0.5 0.5 0 0.3 -0.2 0.5 -0.5 0.5 -0.3 0 -0.5 -0.2 -0.5 -0.5z"/>
 </g>
</svg>